<mxfile host="65bd71144e">
    <diagram id="e6kVYkrcjDOEAXDNQ0tL" name="Page-1">
        <mxGraphModel dx="517" dy="169" grid="1" gridSize="10" guides="1" tooltips="1" connect="1" arrows="1" fold="1" page="1" pageScale="1" pageWidth="1169" pageHeight="827" math="0" shadow="0">
            <root>
                <mxCell id="0"/>
                <mxCell id="1" parent="0"/>
                <mxCell id="2" value="" style="shape=image;verticalLabelPosition=bottom;labelBackgroundColor=default;verticalAlign=top;aspect=fixed;imageAspect=0;image=data:image/png,iVBORw0KGgoAAAANSUhEUgAAAoQAAAFWCAYAAADwqYz2AAAABHNCSVQICAgIfAhkiAAAABl0RVh0U29mdHdhcmUAZ25vbWUtc2NyZWVuc2hvdO8Dvz4AAAAmdEVYdENyZWF0aW9uIFRpbWUAcXVpIDI2IGphbiAyMDIzIDE5OjMyOjU3LaD3VAAAIABJREFUeJzs3XV0FFcbwOHf7CYkgUAIENxDcIfgFqzF3V2LFbeixR1KocWlaHEo8OHuFAmF4ho8hCiEyO7e74/QQIAYJBtI3uecPWczc2fuOwuZvHttNKWUQgghhBBCJFi6uA5ACCGEEELELUkIhRBCCCESOEkIhRBCCCESOEkIhRBCCCESOEkIhRBCCCESOEkIhRBCCCESOEkIhRBCCCESOEkIhRBCCCESOEkIhRBCCCESOEkIhRBCCCESOEkIhRBCCCESOEkIhRBCCCESOEkIhRBCCCESOEkIhRBCCCESOEkIhRBCCCESOEkIhRBCCCESOEkIhRBCCCESOIu4DkAI8e0ycZf9v67mjA9YaPn4fnBDiiR6t9/4aAfzl1/E17Io9QfXIpf2rnx4dCo9Zbp2wiVtxPWF0jT0FomxT5eHUtWqUiS9ZYxdX+h1/DMQ58IzuatK0ufyKcbkj/EqhBAiTklCKIT4bCZu8b/Ro5jtDRp2HDMWYvtoR/T/7b+3iZkjlxNEZxz718LJ8l358CSmKL1rdcQlrRZhfZ9iqc9J/QnrWDykMMm+/PLeUUZMSmHAiEnF5ImFEOLrIAmhECJGKHy48PMIVvywlg6faN0LS0+2MgPp0zzDR+NWdKbUFMkSheNL9aNn0/ToUBheP+T8hkVsuHyTHUPbMK6UK9Mq6t8VD/bG3f01JEtL6qT6cM5pItDXHc9XViRPa4/NlwyoiUJ9piAvPF4qkqROQZLwQnobV5C3O56BttinscXqC8ISQohwKSGE+EzBarfqkxylJ71yymWr9FiqUi2OKJ+3+4OOtlfZQWWks1oX9K48WKjS7c+ogM+s71PHB3nPUw10KA1LVbH7PypIKWV4ul2NbZBHpUmkKQ2UTp9U5S7RV626GvzekQb1ZP9I1bhwSmWj0xSappIkLaiaDNqt7hrelnDtqwqBSoKzGvFPyLaAm7NUs7xZlGOWEqrrHw9DykWhPqN6pPaOKK8ck+iUhqZsbZ1V62Xb1fTqGVW2LDlV+189lFJKmVSgurd9oKqXx05ZaSg0vUrhUFH1WHBNvYrm5yaEEJGRSSVCiC+mYUWJPj9STAvmytohTL9gNH8MdtnIYgcKRYC3L8H8y7yGdRi95Qa6zO0ZM3cavctp3D47mzFlpnHOFHKc/7nB1Pt+HJtcTTjV7ceQfvVx0v5h47QGtP/xb958oi6j5xYG1ujHhqteZKw+lQltMmKMUn0mni9vS6sJx7j72pbcNXvzY08n7ozqwtQzj7n/4AE+r0Nuy77HelG73nR2XUtDtWG/89u09uQ1HGHxD3UZsNXPXB+rECKBkC5jIcQXUwRhmaY/EzvNpsaSs2zpvIJ2FzqQOdwjjFza3ZnyJW0IO1JQI2WJSWye44J1tCIw4bVnFXu8QCMxGYvmwjLoOjale9Itn4FczWfTp4oVwUWusb3sUp5772LXvaEUdXTnrzEzOW/QyJ1zIpu3dMMRIz0yFiPv4Js8nreK3bOdqfteTf7qHL/Wa8y8O4ko+v0SlsyvSCotpAs4svqKON5ny6KDeCiNnBnGsGlHX/Jo4FO2CQXqbQRAp9Nh4jFbxi7iqklPkdq/sHp8DZJhokHif3DqcY5jozbyqF4HMn48zFIIIT6LJIRCiBigsDQmp+KEWdRb9QNbL45h4vqGzEsXfnn/Z5f5+9mH2zXyW74k8vZFI5d3/4BL2cRogPHNI25cfog3Gtm0rnTumgrLROXoOD03pfZs59C5afx8NIhgjxsEaBCkfHj1AoyOZzhyEBQWZKhZmawA6Mncz5VX/d6vLUQQnpwZ0JA5J0xkpj/TNzfG8W0/iy4K9ZkcL3P5AoAFaetVJcfbhC5xrTqUUxv5M7S+M5w6DArwfbWfGaNPh+x4ClaawvfySU4YOtAs5idUCyESKEkIhRAxxiJ1R8aNns3un65xpNl0ThyxCmexUwucm29nw8xCJAqzXUNnbU+SSGtSvHrmyqnQhFLDIlF6StXpwYhfh/J9MjAFHWd65aoMPxkEVunIlisddjzDVwMUaApQHnj6hxyf2N6eyBrcgrnDif0h75+ynS0nRlGxqg0Qxfrw41VAyPGJ7ZK9+2x0ybFLDPj/d3neeBsATNw7MZfJJ98LwjIR1kFeeAQDkhAKIWKIjCEUQsQgC5wG/MIPGRX3mMPgP1+TOLyS1ilImy4d6cK80pLGPirzaC0o3nQHdx884MEDN9wePcfz9SNO/TWMWll1gAmvlUMZfyKQJKoSP194wE3Xc5xc1oispvdOo9m+TT4VAb6+RLaijI40VB22k5Xtk2DgKjsbTONEEFGvj2QktQ155+fpyX+7tCB3PPzfK6YlxRbQsOS7oXd4ExhI4Huvx2ojPcP7YIUQ4jNIQiiEiFF6yyoMmVWbdJoP5//Ywp1YustYJnYgfebMZM6ciUwZHEgapr/DxKM7dwgEkpGTPE4WgIF7u/dwSwvZbzSCjmIULwNg5MmRUzx/mxG+2dedUrnyUyp3X9a+t+ahDZkp1bwmzafMoH5ixZ1XMxg39gbBUaxPTyEKFwEw8HTldlyDQ/a5r1nDkfeaJ3UUpWjpkHJPTp7jvxCMD46weetujpx7iG8Mf55CiIRNEkIhRAzTkaLxVH4qDfi/5rXpU2WMnNvciNzZspHtg1f2rDlpMu52FMYRRhxDRkcnrIAn7GDuT78xZ0wjGkzzJ3UqHYE8wvWvXVx5lJmmA+qRUTNx/dww2g1ayB9LR9K2x0LO3rxGQApnytp9fHaL1J2YOLYwSfHl3IT+/HZLi1J9lx+lp36vmqRDccd/HPWL16d50/KUH34HG9t3GaGebDTuU5N0mPj3wEDaj1zB+nWz6NmgGk0b1GXwxGsYvujzEUKID8T1ujdCiG/X++sQdlkfHGaf/9+9VSENxSfXIQz/pWGpXHr9q4IiqC8q6xgaA4+pqeUTK0stZASfjUVB1WHxVXViWBaVBJRGItVg4ktlUi/VmV/qqnx2IWsHAkqns1fONeeoY14h5/rUOoQG0zE1KidKQ6cKl1kT5fqM6rk6Pq2eKpbORllZJVeO+VuoEYdWqK42KA0r1Xiqb0j86rk6Mfk7lSvx+3GlUCXqLFBn/b78304IId6nKaXkQUxCiHhJ4cvDv//mpk8yshYrRg57HYoA3K9d5XFwKrLlzYz9f13Nbx5x+fw1ngQkIX3eIhRIbxM79WmveOZ2l4c+qShQOD3WgMF/Pk2TdGcbDrRf9YQlrd71fxtf3+fy+Zs8D7AhbZ5iFMokgweFEDFPEkIhhDAbAzcm5qPwiJtYqJK0WzGLLoUDcP21Kz2W3MZOtWbyy5W0TRHXcQohEhpJCIUQwoxMAaeY26g+P+1yxz/07qthl7Qi3VeuZ0I9BxncLYQwO0kIhRDCzBSBPP/nIEfPu/EyMBEpMxakjEsxMka+AKMQQsQKSQiFEEIIIRI46ZkQQgghhEjgJCEUQgghhEjg5FnGQogYYcKba5uWsPWaP/okZWnepzJZP/jKafI6zdpflrLj4kN8SEWukk3p3LcO+SIYO2d8tIP5yy/i+d7gFk3TY2mTgoxOZXD5viDp3z4Q2cAZJuYsxbg71rj0+4dd053Qf8E1RafuD8uGlEtGqvR5KFqhDEUyhF3GxsRd9v+6mjM+OhyKd6RLjdQ83jOHlWf9eLeWt4amtySxXUZylapG1WKpicqD/YQQItriagFEIUT88eb+ZjXm+3Qq8duFqLMxSO0Pu061Cn68XLXLROgiy4BC06v8+eepf0zhnzvoSDuVNdyFrDWVJnVjNeu0v1JKKYO6plZ2qqqqVa2h+ix6pAxfeF3RqTuisnpdalWq3kx18Om7C/1wke03KkAd/QGlD3fBbltV1OU3dVoWpRZCxAJpIRRCfBHD7UnUKTCMQ0EZyZ8/NVcuu39UxoQ7O/q1Z+VDHZmz9mbC+h/I5TaNrs2WcuPKPFYe6sLUyhG35elJR/k+g6ibBVAG/J6eZuuizbi6b2JOqZwUCp6Ai0VuWi/eR+sIz2QiyOs5nqQkrX2iKF1jVOou917Ziv1/on5WE0F+z7h5egsb/3eT09sG0PHQY367P52a9hHXZ2dRjXZTapJVUyijL4//3sDyDVe5cKgvA/o5c2CRs7QUCiFiVlxnpEKIb1vw6d6qapFeauEZD3VrUk6V6BMthEG+81VDUInIqXrvDdlhUgHK6+lL5W+M+Pz/tbwlIrfqd+j9Nj+jerGskkoByobCavAZkzKoi2pWlYwqWxYn1WzCPWVQSgWdG6wqZcuiClh1V8vur1cDy6RSNhpKpyVThSvMUEe8Yqbu8MqaVKC6t7a+yq5DQSJVoaerClIRtxBmY4g6EPx+bU/UyhohrauOjFanIvnMhBAiumRSiRDii1gUnsJf5+bQpURytHAWsdIunOQC4EBJilYM5onrAf637SjXX1tg9dl3IR122bNiBxh4hb+XCUUA3vcfcf/BfTxeBL2t3B+Pew+4GXiE35v1YTNl+a58ZhIrX1yPDmXEsIsxUnd4NBKRufkchlcCjSAe/7aF8+EXD+ccKciSRUMHGPHFWxYLE0LEMEkIhRBfxsoam0juJAa3BzzX4FWylxxokA3HolWpXb86ZZ0cqdJlFw8/I8Ex8YxDK3byUAM7cpOj0Ke7nHV6C/RAIDfRp1vO6eNb2XjkINPKgUYwz7ccibW6Q2MgLWXKZ8USeM11rgRHrz6j1y7+3KUwoZG4YH4KyJ1bCBHDZAyhECKWmfB//QaTAh/f3ez+pz7dxhcl0YU/mL/5FscWd2FkhWssbePPzRO38Phvli7WpM1fjMxvzxLMQ9b3qcAZW0Az4v/4Klce+GFU1uRsN5C2aSOOIhGOlPyxCg4aQBbKVkyH5fGnGJ95R3oFUar7ZkRn0LCyCZllrDBgiCQBdku0hn4Vj2ELYHrFk2v/8sAHrMhH1clNyaBFGrIQQkSLJIRCiFimI7GNDToNEqvCdNq6kUnFNIzUI2WBAgy58pR/NpzgVSs3hpf7gc1vj7IgC5233+bXZCE/K17z+J+TPP7vtJqOZCmLU7vLRMaPq4g9YIggCkuSkdThXUuetZU1/505MlGpO6JGP4WB+7evYQSsSEvGSO68xqCH/HPyYejPOi0xmfPVpdPE6QytYRtpvEIIEV2SEAohYp3e0ZH06ghepCJFppDmLR3ZcHIC7YoiyN0HEw44FitCsbcjWfTG9GRKrvHfonyWONFu435GOgOahoVVChxSJ8HSDPF/ad1Gn82s2ARGdCSvWJkykdx5M9GDGfeHUlJTaFhgbZ8Gh6RfsqKiEEJETBJCIUSs05yrUNZyKauCXfl7ozumHqkx4cqFi6DQkzRHZmx0pZl6rsFHxwYffXsO9CRNmYHMmc2fGH1+3SZe3d3G9I6dWekNNuSn+s91SEHErZkWJCVlhkxklju0EMJM5HYjhPgihjNjaT7yOL5A4MOnGIBHiTYxrKYrdsqCnI1+Z063evw4MDMbJruxrW8Fql+oTKY7W/nzASSmIC7d48+6ekHcYWnrHGyxBFOwNy+e+vDGpLAgI9UnruLnSuZo0xRCiOiRhFAI8WWenufQ/n1hHu9mCrrL2X130bAkKOcrNLJSdMJulns148fFlzmw5AagYWtTnOa/rGZU2fh0KwrG5/F9fNDQdBYktXeiSKk6tBk0mC4VU3/Ro/SEECK2aEopWdFKCGE2Ae5XuHD5MW8sM5CnWH7SR/AcYyGEEOYhCaEQQgghRAIny5sKIYQQQiRwkhAKIYQQQiRwkhAKIYQQQiRwkhAKIYQQQiRwkhAKIYQQQiRw8WnxLyHEV8rEM04uWsyhZxEvamBhzE21YU0onih2o3lxfBGLDrmjqZxUHdQMZ5uwJYyP/8eCZefxNNlSoHFfahsG4Vx4JndVSfpcPsWY/LEZnxBCmJ8khEKIWGfiMYenj2TUzYjLOVCXJANiOyHUkdziAn+MWsgd0nMnZ32cm7//nBQj91cMoP+o6yRXjRjTvR+8zknJalVIF5yXbEkVoMVmgEIIYXaSEAohYp2OTHw/5lfsXoT8bPLZx9xR27mjbCjRdhKtioeMXtEbs1HO+v0jjfh7Pcc7MDEpUyfHKrJBLiZ/vJ77oXdIQ7II7m5aqfY0z7aQsfeec3H1EV43r85/62MbucX2TdcJUjrSVGpBYwfQO3Rl3p6u4VVKkLc7noG22KexjTeP4BNCJDBKCCHMLPjeKFUWlA571WZx4Ef7TcpDnZ3XRrlks1WWGgo0ZZ0kl6rRcYX62/e/MoHq3OhiKkfWbKpIvSXq0LwmqkhKvdLQlLV1XtV88nnlE34E6vrP2ZWlhspEN7Xlzbs9QY8nKBdQejKqTn+G7Ai+Pk7VzJpF5UrdQE2/YQqt/972gapeHjtlpaHQ9CqFQ0XVY8E15afeqMMDcinHLDlUrUEXVdDb8hfHlVCOWbOqnGlrqsmupreRnFATymRSOTKWV8MPGmLmAxZCiGiSSSVCiK+KIpCrU6ryXY+VHHuQijLthzB8cHMK29xk99L2dKy0lJtvhyLq/O/z4P49XE+MpNP4lxTq1If2ZVNhDLzKlqGtGLEvMJxaLHDs0IEyCp6ymz0Hgt9uN+G+YSOnNchAPerXC2mu1AJe8vj+Ax65P8I7MKS72PdYL2rXm86ua2moNux3fpvWnryGIyz+oS4DtgVSIHdKnj24w52tZ3imwMRtDmw6y92HD7n77CAntj/DBPDsKAdOPuTVo3RkKyZPOhZCxA1JCIUQXxXT63VMHO6Kt7KmUt9d7Fk6mfFT1rB/XWuyY+L6hcn8dsCIhg6dhSUaYOPhQMN1u1k2ZQaLDv9BtzQQyC1O/HqEN+HUo2VuTasKYOQhF1ecIQAw4sbOjRcJVBZkaNOGatafPtbEY7aMXcRVk578tX9h9fju9BiwkPUTnLHkNsdHbsanWjWKoHh16ywnDGDy3schV1CVvqc8Adz731G8AcOJ47hqGslzulAtaex8pkIIERlJCIUQXxV1cjfHTGBDPoq3yhU6Ji9R5bpU0oGB+1zbex/De8ek4TtqlLQEQGdRgeoVQYcRv7OXuR/OxGY9mWnQoRJ2GHm+fivHjGDy3Mq245CIvJTrXiLc8YBGznDqMCjA99V+ZowezejRY5h/Eaw0he/lkxzLWI0KGeElF3C9pDAc2MdpElG6UndccoPPqYMcNARz+cQx/JQFGWq4kEHmqggh4ohMKhFCfFVML17wErDCnuRp32VIGimwdwD1XPH6hSdGsoTus0jlQLrQ3lYLktvr0TBicvfDK9xJwTrsm7WnZufDbDTuYOexyRS5vYljaGS0aUbzkhFkZ8obbwOAiXsn5jL55Hv7LBNhHeSFT1BRKlaBKX/c5PqRZ5y+sZMAClC6SmUqPdKYfP04h849JO8pX3TkJF+dHEiHsRAirkgLoRDiq6JLbk8yBcH48srz3XaFNz6eoKFhk8IuTPJk8niFj3pX0s/PiAJ0KZKQLIK8TmfTgFbNwchdTm88wd7tx3mNFU79WlIoorujlhRbQMOS74be4U1gIIHvvR6rjfxoY0PpqlVISiDnLv7JgaOQkrKUc7ahePVaJOY2R/du5eRpSEVZSpeRdFAIEXckIRRCfFVU6Qo4A6+5xqXtj0MmXgCms/s4EQwWZCJn1exhujdecpzDb/uGjVzg1CkwoSNxibxkiyAh1EhGlY5tyEQwfx+fwLKjkJwKVO6aNcLWOh1FKVoawMCTk+fwfrvd+OAIm7fu5si5h/gCNlWrUgwjj88sYdMtjWRlK1PJAiyqVKMkQdxcs5iTGiQv5kJlm/DrE0KI2CYJoRDiq6K3b83AH1OTSPPj4MgmdJu5gpWLhtGixUKuocMpzwC6fx92tIu3zWmWNujDzFXLmNWhE7/eAwuyUKKrS+j6guHWV7kDTdOD6dI+9ntrpCvakhaZIzmGbDTuU5N0mPj3wEDaj1zB+nWz6NmgGk0b1GXwxGshYxzTVqaiE3D7X26YrHGsURE7QGdXFZfCEHTjGvdVIrJ8X4mUn/+RCSHEF5MxhEKIr4qO5JSbdYRVtKP/glMsGnCKRYBOZ0+R74YzY0UPCnzQ6pcufWe6ld3H+HZz8TIp9FpaXPosZWz9xJHWZ0F5WrZLyy+TnmEgBQW71o/C5A4dDs2WseF+WzqO3cuO8e3YDuh0KSheZxJzV1QnBaAoREUX0N8Ca/JToG5qdIAiBxWrJMfS1RsL8pC/bkYZPyiEiFOaUirih4sKIUQcMfjcxtX1Ht6GJKTNU4z86d+f92vg0rBMlJj0jMy2E9ngN5Rs989w8VYAtk7OFM2axCxdIMbX97l8/ibPA2xIm6cYhTJFnoQKIcTXRloIhRBfLQu7HBSvmCPygsGA0rDLWopKWWM7qrD0SbJSuIKZKxVCiBgmYwiFEEIIIRI4aSEUQnyjdGSoN5WZ6bzR25clU1yHI4QQ3zAZQyiEEEIIkcBJl7EQQgghRAInCaEQQgghRAInCaEQQgghRAInCaEQQgghRAInCaEQQgghRAInCaEQQgghRAInCaEQQgghRAInCaEQQgghRAInCaEQQgghRAInCaEQQgghRAInCaEQQgghRAInCaEQQgghRAInCaEQQgghRAInCaEQQgghRAInCaEQQgghRAJnEdcBCCHij6lTpzJv3jwCAwPjLAaTyYSvry82NjZYWVnFyDn9/f0JDg7Gzs4uRs73uYoXL86KFStInjx5nMYhhIh/NKWUiusghBDfPi8vL1KnTo3BYIjrUOK1efPm0a1bt7gOQwgRz0iXsRAiRvj5+UkyaAYvX76M6xCEEPGQdBkLIWJcxowZuXr1apzUvWPHDlq2bEmNGjVYt25djJyzYMGC3L9/n/Pnz+Pk5BQj54yOiRMnMnnyZLPXK4RIOCQhFELEuKRJk5I0adI4qdvGxgYACwuLGItBpwvpTLG1tY2T64qrz1IIkXBIl7EQQgghRAInCaEQQgghRAInCaEQQgghRAInCaEQIl75bxbu9u3b4zgSIYT4dkhCKISIV968eRPj5zQajUDIRBUhhIiPJCEUQsQrxYsXByB//vwxcj6j0Yi7uzsA9vb2MXJOIYT42khCKISIVwoWLIhOp+P69esx0lp49epV3rx5Q9asWSUhFELEW5IQCiHilcSJE1OwYEEMBgM7d+784vNt3boVgFKlSn3xuYQQ4mslCaEQIt7p0KEDAHPmzPmi8wQFBbFw4cIw5xRCiPhIEkIhRLzTrl077OzsOHr0KKtXr/7s84wdO5ZHjx6RJ08eqlWrFoMRCiHE10WmzAkhoqVt27bcvn2bMmXKhNnu6+sbRxF9zM7OjunTp9OlSxd69epF/vz5KVSoULTOsXPnTqZMmYKmaSxYsABN02Ip2siZTKbQ97t27cLLyyvM/j179lCnTh0mTpxo7tCEEPGEppRScR2EEPGF8f4m5swPoszEFpSIYvu7CrzPmR27OHHtBW/0qchWrDo1q+XA/r38w+R+kBUrzvMiwt9WHSkKtaR99XTAHQ7N28xlv6yU69EEZ9uPS5uMrmz7ZS8PMtalb7PcUYrVw8MDBweHSMvlzp2ba9euRemcsalhw4Zs2bKFVKlSsXXrVsqWLRul49avX0/btm0JDAzkp59+ivNEa/DgwUybNi3ScuHdzk084dSy1Zxxz0zZHs0oGe6jkU08O7aENaeCyFW3B7Vyx10SLIQwMyWEiBHGgNNqWhlUGhqouQFRO8bn7wmqXga90tCUZRI7ldRSpzQsVa4CP6vdz96VC/q7p8oLighfFqpU8xMqQCkVpLap7rYoSKTKtDmqPD9Rt+HVbFULVJ5iq6N8jU+fPg2tb8qUKWFeQ4cODd2XJ0+eKJ8zNgUGBqoaNWooQOl0OtW/f3/1+PHjcMtfv35dtWzZMvQ6evbsacZowzdhwoTQmKpXrx7mcx8zZkzovvCY1Ct1uKtOWWKvms3xVMZwyhnUZTW1ECo1DdV899i5FiHE10m6jIWIAYaX+5jWuDGjTkGKKB5jDNrFyNrDOehegUHrlzKykSNJjHfZP6kt7X8ew9DGucl/tBkZQhtpNJzKz2H5zJIk+uQZNawdcmMFBIduC+LCym6MbnWGX7/7RDPhZ0qVKhWDBw8Os83NzY3JkyfHWB0xIVGiRGzbto1Ro0YxdepUZs6cyZw5c6hcuTIlS5YkS5YsmEwmbty4wenTpzlx4gRKKWxsbJg2bRo9evSI60v4SIUKFcJ89gEBAYwePTrCRbM1klDmh57kWjiHy4u38qRnBzJ+qvHvynLWXoIM37WnaeQNwUKIeEQSQiG+gMKDC8tHMmT4Qo4+z0yWjK949TBqxxr3Lmbdc0tK9lvMxCaO6AF02ak8agXD9zgy5vifbPVuRs/3lr5LnCQrRYoXxyaK8WnJ05Pc/yp/fT+amj4z+D5ZNC8wHrC0tGTSpEk0bNiQqVOnsmXLFvbs2cOePXs+KmtjY0Pr1q0ZPHgwOXLkiINoY4+uaBfaFJjDlEvrWPewAwMyh92vCOT8ksXcwJH2vb9HVlwUImGRhFCIL2BgH3M6zOd23i7M2DCa1JMz0ieKCWFw+tr0GpybTI1zhCSDb+lITdo0EIwvPr7wJX+ZsxjaM3rIZnqNm8vY7vUoubpCgv1D7+zszIYNG3j69CnHjx/n3LlzuLu7o9PpyJAhAyVKlKBcuXIkT548rkONFXry0rJzMcb1OcrBxW70HZs5zP87o2k/K//wIR29aVnDMs7iFELEDVl2RogvoKMYXbde4fyVhfQqkzxav1BJinZgxJQJtHMO23dneL2d7QchGQUpkv7L4tO/sSLXiCUMyRfExTXdGLHL78tOGMOMXGVBZUtKNz9mtjrTpUtHkyZNmDJlCsuWLWPJkiWMHTuW2rVrx2gyaLg3g9rWOei1y/DRPqPXceb/UIn8GexIZpeB/CU7M+POAyiLAAAgAElEQVSAO6ZPnCfm6EnTvivfa2+4PW891z6YfxKwcxmbvaxwHNSWUjKXRIgERxJCIb6AnpyUqZePlDH0B9TEfXZ07cFaH3vyj/+R6mEaahQ3zg/ju4oVqfiJV/USQ1j/iZVfLCzKMHDFQAror7Gz5kh2ecdMrF/KZLzJ5vbf0f+QwmSMX4sdBLitoHu1gewLNGH64NKMhpNMrVKeoastqDbiD1YtH4iLWsu4qg0ZfyF2Pwd9sia0bQZPPdax9p93dZnwYPfSTQThwvc9w7ZYCyESBkkIhfhKmLjL9i4utF37mvwuvzFrWPaP/jAb/V/w0M0Nt0+8nvzrjq/x0+e2Lvoz837Kjge/M677YTxj/WoiYsT93Dz6litOq/V+JEoUf5qjTDzj7NIuVCvSgdUednzc8WrCfXF/Zl4sROed25nVvT51G/Rj1rqhFOYku2adITAW49NhT7Uf2pIKV44vuBI6+cjovZ5VWyFd6Xa0yPzhUQaeHJ/DkKYVKJIrI5ky56FEpY5M2HiTj79/RKdsyLjFf3+tS8MBJ2P1uoUQkZOEUIivgPI/w4J6pWi2+Dl5aiznj90tcPooT9LIW34RV+/d494nXldeL6NzOAMENZJQePQKhuQP5sKf3Rixw49wcsdYZ+Akv9TrwV/ezZl4ZB7NdB93qX6rjOfG0b7TX6jq89mzrPZHM85NPON/68+Q0rErPSu+mxqkzzaEnS+9OPxHKaxiOUaLSl1plcXAw3lrOGkIicp95RIOkZESfeqT9r3/d4rXuM6uTKmKo9jxqhhNek9g/JiuVEt/hllNS9Kw/9nQRC86ZUPKB3J/XTsaD9zJ3evesdxdLoSIjEwqESKOBT/dzPCazZjlakf5rlv4Y953ZIqFr2p6i7IMXDGQHc7T2VlnOC7PcsV8JVGgIwfNV//LgIp5SaZto3c86i22yNyRRa4TKV3IDuPegx/tN/EP/1yEFPWKYvX3ciau2ce520bS5atLh6EtKG6Gr+gWlKRN5xz8MnITmw6No1y1m6xbfoEU9KdpQ+swZYPOjaBj/4vk7HWQDbOdQyckmTq0p2aagtSf9RO/dTvATzmjV9bkeZKlw3syYtETSK6RNvYvWwgRCWkhFCIOGZ6uoUfZRvzqmpWGMw+zdUHsJIP/sS7yM/N+ysFL5tNr8BlexV5V4dKRjoKV8sbYuMuviZa6GGUL2YV7Y1U8x90bnjwYRqUKo9h634KkiR+ye3ZrGmXozrrH5ojSgmydulCa25xZeBL/WytZd0FPlh7tcXmvj1vhy74Zv/DS1Ioek5zDzE7XYU+pEUuZMrUD5ROpaJUF8N8ygimHCtNv/35+zhdXbdVCiPdJC6EQccRoOM20Wq1Yec+JZssPsLhdpk+MOYtZGkkoNPoPhmwty+iVq3mhQdQeWidihPENgcDzw+502PEPc2slR4cJr+PdqVRhMbOHtqf+ytjvNtana0u7mkMYtnEdqwsf5jZl6fdjgTD//4zcwvUCJC1ZiSqJP3GOlNXoOCjkvSEaZQGSNP2LC51sScITlsSjFmIhvmWSEAphBooAdnTKTJ+dOWm59gjjXeDJgt5Mvqhh6ZCeoCOj6Ho47DEWhuzUmDKShunfneXB1Tl067Ax3BYoqxS1GTC9EVkjaH3Tv511vMN5Omelcca89EmwAbJk7cHQmv8tU6QjWbm+tC28kAXbj3JTlaJALLee6khL3a71Gfy/Pxn5iw9pC/Sn3UcjCDzwcAervA5RSFCjUxa0pLYkBRk3KMRXRBJCIczCyBv3Fzx+nhTvAIWJF+zd+Dd+gHpxhD+XHfnoiCQ4k3bw+wkheLvtYcXy8GvJTgZaTWlE1kh+s0O6jrdSfsLtz7oa8Xk0spMtE1xMmhgb7f3t9iRPCuq1AYMCzNCdblOnK41SbOU3Dwe+m9SETB/VmRz7VBDs7RuFCUjRKSuE+BrJGEIhYohGEpr8pXimNtPT6uN9jbb/w9iCSbBOpqEjHZ0OKUxKocJ5vVJnGVcg5HjL4nP5N4Ky/73uqPGUtwBL6vK7n+K2YRTOn/gt10hC0XG3eG1SXD3XMvY/HAGAnoJUqALel/fyP49321XAcc64QtLKBXE0013ZQleDX18qjMqdVZ0/fqahjlwUKgz+hy/i+oluXWPwHiY37czELU+iVVYI8XWShFAIszDwfM8s/vqnAhWLyrK/CZVGUioNGY1TonVMbjyRzX8/5vmToyxp34eNvkX5fvh3fC2Pm9aRHJdW9QliBYvWen7QvWvk0fIJzNqwh7tB9tEqK4T4OkmXsRBm4u+dh67nelDHJvKyIv5KlHsk63YG0rXHJJqXHE6w0khuV452f6xgVIWv6xnCtvWnMr5mPnq2qYzhwTj6tChJZs2NM5smM3zECdI6L2ZQU5tolxVCfH0kIRTCLCzI0WwQOeI6jK+MJfWYFxA/p5laVl+L2ycvTU/aqpP46+YE/J9e5/aLJGTMnYUUicwdYeT0ONF663ks+3Vn5MT6rBlmQqFhZeVE9c5rGDu5Gbm06JcVQnx9JCEUQkSbh4cHv//+e5htnp5x+0C8b4+OxOnyUjBd9I46c+ZMmM8+ICAAAIMhdp74orMsQIu5x2nx62s83NxwD05J5uypsf3EyIfolAXQkZ4uRxVdYiVyIUR0aEqp+Pn1XAgR47y8vEiR4sMHsn3MycmJmzdvmiGihKFNmzasWrUq0nJyOxdCfC5pIRRCRJm9vT3Vq1fn7t27VKlSJcw+Pz8/1qxZA4DJJCvMxSRr63ePlHN2dqZo0aJh9m/ZsoUGDRqYOywhRDwiCaEQIlr27Nnzye1ubm6hCaGIPfXq1WP48OFhts2fPz+OohFCxBey7IwQQgghRAInCaEQQgghRAInCaEQQgghRAInYwiFENGSKVMmHj169NEkBn9//ziKKP57f5LO6tWrOX/+fJj9W7ZswcXFhYMHD5o7NCFEPCEJoRDfOCM32T1lDT4uo2lZIvyVf43cYv/crVx5nQbn9m2pkCb6dT1//pxHjx4BIUlIeHQ66XyISe9/nteuXePatWsflTl06FC0z6vw4Nyq5ZzUfU/Xlvn59HNEjNzb/RubLgfj4NyONpVSSdeSEPGQJIRCfMMUflye0pK2Q6/w3exhtCwR/uMujMcn0+vHpdzBiqoepdk1zYnoPlX5/XXuNmzYEGbfixcv6NGjBwAWFnJriUnZsmULfd+8eXMaNWoU+nNAQABt2rT5jLOaeLHlB5q23Yx17uQ0CychNHCQue36MNNdwymlkcIvBlNInjgiRLwjd20hvlEmnnJ8fGNajj6PF1YRllX4cnDRUjz0LrjkP8Tt6Us5OmkSLp95B0iVKhWNGzcOs83Nze3zTiaiJX/+/GE++/8Swugm4cbny+ndeTP3FeSOoFzQ/xaxwT015aum5uL+5fxxdAAzK0b3q4QQ4msnLf9CfHNMeF5cwIBKhag+8iJ6xwyRfrMz+W/ij1WQvkQHxjVw5BmrWLM5wCzRiq+PkVusat+JzSmKUsA2/HImPNi5cANBlKfJ5Lrk4TqHZ+zF13yhCiHMRBJCIb4xiiBOTOnGknPZaTvzCKfG5I2kfdDEy9VL2G1KTr4WtXBu15piPOL0zE08iYMnnSmCeLR3DG0r5CBdssQkSZaRAmW7MOvAC+LT800M92ZQ2zoHvXaFfcawIpATP5enVMmSlHzvVapEefqt8DFHZNyd24ahuwvTdvlAnCOYC2R6uZYV28CheH3qF2tF8yKKJ9uXsPa5GcIUQpiVJIRCfGM0LMnX438cdzvFwn7OOBBxVmfkJmsXn8CaGtRokwJd1ra0KgePzizlj9vmzwhfHelFjZrjORlQm0Hz17BiXg9Kv1nD6Kp1GH0i2OzxxIYAtxV0rzaQfYEmTB98xCZucXLzca4/tyVr9uxkD31lI3WK2O+KDbwxkR8GXCJXz0VMK2tJRNOQHi5bxCEcKNStHpnITbMOxXnNLrb//gBjrEcqhDAnGUMoxDdHT/YKNaJcWl1fxqqzGulrt6FRctCTlcadKjHs+DH2zLrCwN8LYBmL0b7PxDO2Tl6En7EfCw7P5LvEAPWpVyMlnqm7sWPCPob9r2Y4s12/fiaecW7pSAYMWsp5o90nP1eT6SKul6HEoIWsmeoY7Yk9X8JoOM3MZqN5nGICy2cUx5b74ZY1cIk1Sy9jT2fqtUgKQOq2najeuzuXxi7j79E/U0qaFISIN+TXWYh4TBHIhYULuEp2SvWoSjIAdNg370Qti2DuzVvIXrMOJQwktUtP6k9uSoXE721OUZB8mSHg4TNemTOcGGY8N472nf5CVZ/PnmW1SfGJMrp/zvMvGchWKqtZk0GFH+dHtmDWpYq03TmE0hGPM0CdXczqazrSN2tL7bf/Vnq7prRuDI9YyR+7AmM/aCGE2UgLoRDxmNG4l+XLfDCRhUf7hjHwQEj/pdIC8ckCT+5sYO2aCdTqmMws8ejIwneD5/Ldh3Fe2cque3ocuhYhuVkiiR0WmTuyyHUipQvZYdz76UWi/S6c5yGpcDzfiWrjjnHTOymOBWrReeIIWuaPvbZR3+OD6TzFh+JjFjK4aMSpqOIVRxfM4xZJyBOwlZEDt4XuC36TBaXd59T0Hbyo1QiHWItYCGFOkhAKEY+92bqIzd4axsT3ObxkIYff36nZoNPcuThjHXc7diF7HMVo9NnLzy2n4kYzJo4sYrbu69igpS5G2dQh7z81xk4RyL8XzuALnNnuRO16nShn+Jf9SyfTrcBRbp3Yz+gykTTdfQYTj1g3bD5XVXrU4W58d/jtdr0nd/Tw/PEvNKu8Dscas1kwKC+6gG38sQqMFooHhxaz6IM1r/UWioeHl7D6QSP6ZonxcIUQcUC6jIWIp0w8ZduS7bymCAOOeuPj4xPm9dL7ID9lVzy8uoTl/8TBdGPA8OIvRrjU4rfLpWi/ez7tM8ZJGGakkbLaWEaPXc+e8xuYP24Yoyet5uCFWVSyOs6GH//kcaz8U2gkc8xH/kIO6D098Xz78vLw5Q0aJtMrPD098fM1ACa8/lzMjiBLKv1wFo8P/t/4+Lzk1MA0vOIgO3+9QfyYBiSEkIRQiHjK+HQlK3ZBupTNaFn047mkFjjTunNOgjnP/ulnMfeqhK/+nU1r5/osuOzCwIO7mfhd8nh/Q9JIRO56Qxkxsj753msK1WdoQ8uq4HfhNGdjYfqujgw0X3YFV1fXMK9zF6dS36hwyjSCfa7n2TCuIDrusWHxYQwUp3z3fJ9osbUgX5euFCeQOzOXcFQyQiHihfh+/xUigTJwb8kijmGDU4/m5P3k2iJ6snb4gUoYcFu5kG2vzRWbCc/jQ6hVti8nAjoy03UHo1zsEsTNSOGNm+tJTl72CLPmooYliSxBQxfn43hMd5ax4gSkz9KcVnk/XUbL1p72FeAha1mz6Y15AxRCxIqEcA8WIsExcJZVS26TmIpU6Zw53NmsujStaFcHnrOFTUs9zLIwdOD1qbSoMZUnqUax9NJi2ucL//nL8Y2Rf1lYvyxtS/zOhfc+bFPgAfYdA1vnUhSPw6fCKYK4snAhF7Ald7cm5AhnkUI9WWjUtRp22hPOzNwYS93cQghziusvo0KIL2TZYh9+LcJus6AMY+8pxkZyrI40NP9L0TzWogvLyHUWd/mJI6+yU7mHLa4rpuH63n7LNFXp0LYIdmaKx9wsKEmbngWZO/gXBvYsyOwxlUnnfYilfTqw5mVRum1oQrrwV4qOcZY0ZrHx/WwuEUWmuBM4JbIjdaRotRePVrEYnBDCrCQhFEKYjXL7kz+PQyB32TV1MLs+2J8z86/UjccJIVjgNOh/bDV0p9ekhhSZr1CajpQOVemxfgnjXazjOkAhRAIlCaEQwmwsMv/MMfVzXIdhFpbV1+L2ia5UHRmo9NNfXBnoxcObd3hpyoBjvnQklQE8Qog4JAmhEELEBUt7MuUrTqa4jkMIIZCEUAjxGTw8PBg4cGCYbb6+vnEUTfxnMr2bgbJr1y68vLxCfw4ICFkwyGAwmD0uIUT8oSmlZH6YECJKfH19sbOLfIRfjhw5uHXrlhkiShhatGjBn3/+GWk5uZ0LIT6XtBAKIaIsWbJkjBkzhjt37pAvX74w+7y8vJg8eTIgiUlMs7W1DX1fvXp1qlSpEmb/2bNnqVGjhrnDEkLEI5IQCiGiZdSoUZ/c7ubmFpoQithToUIFBg8eHNdhCCHiGZnXJoQQQgiRwElCKIQQQgiRwEmXsRAiWpRSvHr16qPtn9omYl5gYCB+fn4fbU+SJAk6nXzHF0J8HpllLISIsqCgIKysrCIt5+joyO3bt80QUcLQpk0bVq1aFWk5uZ0LIT6XtBAKIaLs5cuXoe8TJ04cZp/JZApdE8/CQm4tMSl9+vSh7y0tLbG0tAz9OSAgIMw6hUII8Tmkf0GIb5yRm+yc8jNrzr5rHVJ4cHbldGZMm83mCwHhHmviCSeWTWP61MXsvx9565KmaQCkSpWK169fh3nduHEjtJx0Xcas99d+HD169EefPXxeEq7w4O9V05m95gpvADDhdWY5M6dP59c//+V1uEeaeH58MTOnzmDRnscYo12zEOJrI3dtIb5hCj8uT2lJ26GT2XE6OHS7RgoyWhxg1pC+DK40iaNvPnW0Cff1XWneaQjLlwaRJrNmtrjF18DEiy0/0LTtIOaPP40PADqSZTNxdsIgfmrRjnHHAj95pMFjJQPqdmH8kL34ZUyP3pxhCyFihSSEQnyjTDzl2PjvqT3sPF4f7dWRtsV8ZtTV8cBvOj8PuciHOaHh5SoGdd/JG1WLH/7qTgG5GyQoxufL6d15Mx82DOtTt2fm799jr51nU90pnAgKu9/EY7Z178x6LwcqTJ9Pn3zyRUKI+ED+BAjxzTHheXEBAyoVovrIi+gdM3xyMLCOLDReuJjGyf35e053Jp42vHeGJ2zv0ZH1nmmpNPt3euQ05x91I0+PT6FzpZxksrcnU14XmnZfzKmX8WtChOHeDGpb56DXroieMWzi8br65NUXZ8gR83W8GrnFqvad2JyiKAVsP9wb8mViZj0d972nMmroJd4NOjDhsakH/TYZyVNiGtP7Z5PWQSHiCUkIhfjGKII4MaUbS85lp+3MI5wak5fw5v3qU7dj1vyaJNfOsL7RDP42AJh4uaUXfdcr8pabybTemcz6Rz3w0iiaVB3GkcCGDFu6kl/65OfFxi50Lj2XS/FkbkSA2wq6VxvIvkATpgjyXMPj+fzYZRt3TK8IiChvjFEG7s5tw9DdhWm7fCDO/h+X0JGFhouW0MT+NX/P6smU8yHJqsHrT4Z0/YtA1YQ+G9qRQxoHhYg3JCEU4hujYUm+Hv/juNspFvZzxoGIWtZ0pG62gJkN9Nx7MoUxU+4S+Gobo7ptIYiW9F/XgmxmixwUvuyfOpEHgR2YsGsy3RvUptEPs1k/tiRPbi1gxalve3qCiWecXdqFakU6sNrDDssIyhq5ypLWPTlqlw5rs0UIgTcm8sOAS+TquYhpZS0JL6ezSNWWmfNqYqedZH2rBVzmJQcGdOZPz0xUWzaH9pnNGLQQItZJQijEN0dP9go1KJgias0zOjLSYMFiGtt7cWpEHwb0HsAK92x8v3oWrdJHfnzMsqLYT/v4ff8w6iZ/F6FtqhRY8oYAv2+729h4bhztO/2Fqj6fPctqkyKccoogbk5vzaTDzZk8vjyJwykX4/EZTjOz2WgepxjJpBnF+ai3OIz/vkzouH1jLH3696X/siDy15rL1Hap5Y+HEPGM/E4LkQBYpGrLzPm1SKzt4Ldlj8hf/zemtkhl9huAhhVp81elTpXsWBOSGD2/sJB+Y/Zgl6QNTSp/2+sXWmTuyCLXmxxd24VSScJv7Qy69DOdh3hSYeWvtElpnr5ihR/nR7Zg1qWKtN05hNKRry/+9svEEprYP+fQrNX40pmhK+qSXrqKhYh3JCEUIkHQ4dB0PD3yQgpcaDS/Bg5x/Ec9WK2jq7UV6Yt3489/K9F65wAqJYrbmL6UlroYZQvZRXhjNQYdZULLSRhq/8bUVg7ozdQo6nt8MJ2n+FB8zEIGF436qFGLVK0Y2Sc7ibCk2PjxNAiv2VMI8U37tr+OCyGiITHWVqDHGmtz9VFGQG8sSue/DtH0zSV2TBrJjEpVCNx3mIlVv4LgYokJL04ObsGqq72YfbwWaTUwR/ugiUesGzafqyo96nA3vjv8drvekzt6eP74F5pVXodjjdksGJT3g7GPGjbWiQANKxsbaUUQIp6ShFAIESd0Fk6UrO4EVKKSSyp8Mrdm2+D19DrfPt52Sb46OICus03kHVcX+3+Pcxww3fLGQADPr5/kZPKsFCqWiSQxXrNGMsd85Pe1AE9PPN9uVZovb9AwmV7h6elJal+zTXUWQnxlJCEUQpiNwot7J05zS1+MaqXeTUzQJ3OhbEE4fuwe9xXxNCE08uLUce7yjOsjq7Pzg73relXgnOVY/gwYSfEYbobTkYHmy67Q/IPtwWyku74JJzKNYJ9rZ9LGbLVCiG+IJIRCCLMxcoMV7Wqy2mMSG7yGUvht4qcCz3LhClgVykbWeJkMAujJ1HUnf9f2D7NQkPHEIL7reZvvl2xmcJn05JA+WSFEHJCEUAhhNhY407qPM3N7T6P/j/mYPboiabyOsLx/V1Z75aX9ysbxtHUwRCIHJwo6hN1mcEuKBYlIkaUABXLLcz+EEHFDEkIhvnGWLfbh1yLycnpy0u+8ol/shxRhFNl//IutQd3pMaYehX5TKE2HQ5q6DNg2h6G1Il4ZT8QsSxqz2BjZNGc9mYdcI3CIWUISQsQRSQiFEGalIy3lBmzhnx9fcv/6Xfxsc5Izu124j9/7VllWX4tbFJaUsaiziaff9nrcQoh4QBJCIUTcSJSSrAVTxnUUQgghkIRQCPEZPDw8KFasWJhtQUFBoe+VkiavmOTv7x/6/rfffmPz5s2hPwcEBABgMMiSMUKIzycJoRAiypInD30AMRcuXAi3nCQnMevOnTuh758+fcrTp0/jMBohRHwkCaEQIsqsra25ffs2bm5uJEkSdvnkZ8+eUa9ePUBaCGOare27yTbdunWjQ4cOYfb7+/uTN29ec4clhIhHJCEUQkSLo6Mjjo6OH213c3OLg2gSnowZM1KiRIm4DkMIEc/IEqhCCJFAHDp0SLrzhRCfJAmhEEIkEDNmzKBgwYLs2bMnrkMRQnxlpMtYiATOYDBw9OhRKleuHKXyHTt25NatW5QuXTrMdl9f39gITxB2TObu3bvx8fEJs3/v3r3UqVOHcePGRXieHTt2sHPnTnr37o2TkxMzZ84kZ86csRKzEOLboikZ/S1EgrVnzx769+9Pjhw52LZtW6TlPTw8cHBwiLRcjhw5uHXrVkyEKIB27dqxYsWKSMtF9XYeHBzMnDlzmDx5Mq1bt2b06NHY2dl9aZhCiG+YtBAKkQDdvHmT/v37c+vWLWbMmEHt2rWjdNz7488mTZoUZp+3tzdTpkwBwNLSMuaCFeTKlSv0fbVq1cK05gYEBDBmzJhonc/S0pL+/fvTpk0bRowYQe7cufn555/p0qULOp2MJBIiIZIWQiESEB8fH8aOHcuKFSsYOnQovXv3jlby9uzZM9KlS0eqVKl48eJFmH1ubm5kyZIFgDx58nD16tUYjT0hmzhxIsOHDwdg/Pjxoe8hJCG0sbHBwsKC4ODgzzr/pUuX6Nu3L56envzyyy+4uLjESNxCiG+HfBUUIgEwmUwsWLCA3Llz8+rVK65evcqAAQOkJU8AUKhQIQ4dOsSoUaPo1KkTVatWpU+fPhiNxrgOTQhhJpIQChHPHT58mKJFi7J27Vp27drFggULojQO0DxMPF5Xn7z64gw5Er+SD8O9GdS2zkGvXR8u82Lk6fEpdK6Uk0z29mTK60LT7os59TLuO2saNWrEtWvXePr0Kb/++iv79++P65CEEGYiYwiFiIeCg4P56aefuHTpEnfu3GHatGk0atQorsP6iOHxfH7sso07plwExKPl8QLcVvBjtYHsC8xGpw/yvMBLo2hSdTLPiwxi2NJypHbfw9wRXeh84A1rrv9IoTj+mm5lZUX27Nm5evUqb968idFzm3jKqWWrOOuVn+/71SCP9okygefZPOcAj9LVoG+rAoCJZ8eWsPq0N6YIzq1TKSjcoiNVMn18UtP97czfcJ3A5OVo3rk06bT/4rnP0YUb+Nvno0M+YulQmb7ti0VYxvjqKvs3bGL/6ds88TZikyITuUvWpH6j8uRIGqYkD/bOY5OrDYVCYzbyYN98NrgGkbniDzQtkfij8ysC+HfTXPbdcqLy4HoU0oHpzjZ+33wb2+Jtaevi8FErj3pzka3z93PHYE32qp1pWMQmkis1cm/3b2y6HIyDczvaVEr10TmN3OHQvM1c9stKuR5NcLb9+CwmoyvbftnLg4x16dssd8i2x3tYvPYffEJ/J/7P3llHVZV1Afz3glAUEDGwsHOUMQdrjLF77B7HdsxRxo7P7pgZu8XuztGxdRS7dRwVbERRAcn39vcHgsRDkRDF81vrrvW459xz9z28t+/e+8TWoNHqMLe0Jl2mgpT8wZnc1ia+FIpPgygUimTHtm3bBJDChQuLv79/grX7+PFjAcTe3j5ambu7uwACSIECBT7YVohclbkVkbRZHMSafNJrf0iCyZlUGOSxnFrUUcrZaSWFjY1YkUO67QwOLzfKK9nREslCB1nr/e4qz9nfiS2FpO8x030wduzY8L4dM2ZMpDJ/f38BRK/XJ9hz1KlTRwDZvHlzgrUpIhIsJ2R4DiQzbcQ1KIY6zyZKVZD8ueeJiIhRAsWtn62YvX3+mA4zckuPvdH7zyj+cuwXS9GBpKa0jLgcUZ590tf+/e2GHXkyTn3vs706PVJqZdSKBo1o9VZiY2crKc00okEj6dLUl0lH/SLJ9NfPiPwXKpUAACAASURBVCV5pNdfIW/PBcj+9ogejWSnn+x5Ff0eBnkqiysj6flRZgaEngvcVFfsMJPyXc9L1C41+B2XqRUsRE8KKVV3rdyIoc8j9b/sk77pEdBInrQT5YIxep0g2SrdUiFgLmXaHJEXJtoJ8f1daoMUKL7yXduH2oqjJqY+1oileUFpNuKoPDJxT0XioyKEiYIRz2OLWXEigLz1ulMnf3SPR/Dh8rq57L+Tgwq9G1M8BRg9/8bV9SzP3jtypMXOqSXtqjmgi1Ji4F/2z9zCFb8MlGzXlu8zvCt5cHABa8/4vNfDBtAZs1CmSwucbWOuE3svGIz3d7JgzQ30EWQ2euxi4dpr+DtU5efWTlibuEfQ1bXM3vkIx+q9+dFJi4Eb7Pt9OzdSlKVZpzJkitKlwmuubFzI3jtGUmStSdvmhUhtot1IssUQNYjwpHHz2LnL4bkbOePz7h+p0WjRmaXAOm1W8jtXonTuVIk6XyNsNXD27NmxtLRMxDvFDSGIW1NaM/5QcyYsNTKs3cWkFilBMJwZTbsO27BrPpe9TQ/TquGJKDUsKD7oL2a3z0nV8N+YllT2dpjxjACf9/74v2o0pKXBxF0MqWz6l6PBknT5ompFMATvZJlrAOaVKpPr4CH+mubGoMUlsQB0ONPnoBstAsJqG/FY9CMt5r6iyvADjKz7rj1tymwxymYI3sPw+iM4/OQ7eiyez6BWRXAwB0OgO/8s7UvHHpv4s3xfcr2aS0NTCi8CgnCPPxnZoz6lXMuT5gP9EhPGNyeYXrMiA4+YU7LJCpavaUCuWCidoF0LWO+ZnvJV0nN+/1KWHenHtArR+/Vtbc4t78qIVqf4o7qJMKEpREOByvNYNLEoZgBiJOiNJ+4XtrNgwkI2jKzH8zf72DSpxAd1uCKBSWqLNDlilEA5PzCDmJNW2i0LNlnHIPdkdlnEjmoy6WnouSC37lLwg56qXpybH5cAE20GHm0vuUE0WEhVl1sS5isbJUCOdTcTXSy8YGvKy8h/Y362j/GCRUSC9jaXzOjFudWJcJmD97WQrBrEkkLSc4+Pyft4zystKbCQFr8HhrYjK6UtSC6Gy7Eo3qNBvOXMJGfJqEUy2fwsrrdM93lE3hc1eFcnbh57sOyWXtYx97FWYytFq02WA08+KGac2bRpkwBSt27dBG03oSKEARcGSRmto7RZ7ikB2xtKxmQSITQ+PSPHLrwUg4R+97NGiRBGqy+B8uTsPOlSSCu5rUbIwUDT9VSE0FYsyCDtV374tx2Vl6uriz22UnPhURlTEMlKJ1nnF1PtYLk23FEsSC2t58fwzzB11f7Wkg2dlOtwNppuNoqvnOxtK+bYSqu5b96eizlCaIadZHQwF0sKSo/dkfVjbCOEBr9jMuV7M9FjLeXa7BQPQ+yewyDPZF19JAON5I8zg6UkGilad5dEVX1hEUKNbSbJaI440ld2R6kUY4QQrRRvsF9MjVsEuc+VxmkRayrImCuxk1mRcKhFJZ8dGvKUn8lxNzfcTB7/sGCCExZRrhJe8/eCxXjpKlHJKZDbUxZzJCSsRQu+HXCWUxHaObW5PYWAnMWmcCzC+b9PL6BTDI7wOy+4JD0WX+CBny8vn3vz2ucuR+f+SFqfrfxZvi+bYpmwIoBrbK/xP/bGI8GFkZecn1SD2gNPYZa2K9POL6JNng8HviNFDTjFX9PcCIyh7juP/SjeHyFbepoy/dSZt317mlMnDrJj7WR+Ka/j2r4BdCs9nmNvPqLBZIIh6AhjW44npM4sJrVKhy4ZBcU06YtT1skmVtHfYFlLZ0sLMpXoypqrFWm9sx8VzRNdxK8KIw/YtHAvWipRt14ZmrfNjxcb2bDk+QdHSz4GCQ4iBAjyfhVNj2iwolSXWYwaM4J6xT88UdYSRxpN7UNh3TW21xzGno/Uj8Y3x5lWozKDjqSibJeNrF1Wi6yxfNMbn6/GdSukK9GABsVb0byo8Gj7IlY/NV3fMaQd4wfkx4uZjOp25KP0oynMsnVixsgSCCfYN+sycdtESRFXlEH4GZLSKjtFS5SghMmjON84WkW7xvhmI8tWQKZSPzP6x1w8YQWrNoWPg2CVtTDFI7RTLL89KYCUKRz5NsL54iXz4RDDS0mOrGTzYx1FO8xm8s9FwuvpLBwp08WVJd1tecpaNq2OzUR0DTaZ0vOEPxnVPW6KxMhLzk2qQe2Bblg69GLG+dk0yxG7Ccl+Gxew2deWiq1G0rigkftLFrAtBuNMix0ZHeD88q4M3+Mba/ksscOxWPG3fVuSUqUrUrupCzMOn2BhHTPu3B3PmHG3SV5ra9+PEW9O9G/Bims9GLq0Nhm/4vnjOkMxOm47yJ7N0/npOzemVvyBwfu/Qg8hETF6LMX1AGT8viVN02lx/Kk95XnBxakr+TcBHRFthSbUtjVwblNb6naYwpqDt/GKYPtpC7RkwJA+NC0Rm0FQDSnzD2XOoJx4MYtRXQ/zIpZyhPiHGoODj6bm+z5bWT+nSrTpNTFj4P6SBRwkHU5d65OV/DT7uQR+7Gb7bHeTekrnb0G+oYsYUCiI86u6MnS3T2xvFgNaMtStjRPBeO49xpNk5Cx+CSiDMFlg5PnKRewx2lKoRW1K/tSa4jzgn2kbeZSAP6iE9IIRPVmbT+S3b4I4u6Irwz7C0IK3xuDE6tQZ6EaqLL8x68wMGmaOneb72KhBfD32qOjIS/MFY6iMD7fHrsAtIUMVnzm+f/ej8+9GCo6uR5qrxzh27Bgn/n1JCAE8vXGCE2fv45fUQn4itPo8fFetIlXr92bKvjk0tHFja/91Cfqb/Vx5pFnHLxnssLOLfqTPO4pDplYf483ucT9QoUIFk0ftrjujOJYh/LtoIafIQsnudUgLaDO2pk1NeHB3CYvdEq6jdSkaM3nfOOpmf8LRxb/RonJeMtk6UvyH1vw6diWH//u41do6Yyq+HeHKgELBnFvdlWGxMLReaM7we40fGHgsCLAiQ+E8pP0IhyuEi6xafJk01Kd+i9SAlvRtO1CNN9wYtSRGPaXXl8HF1YXCuuvsrDWM3S9jf09TSLYcZAGC7zzGI35NKT4SZRAmAwzcYvXC41hSk5pt7NBmb0urcvDg1GKW3U44pZewXjCkCyxBP9ffKKK7zvaaQ2OtSIy8CjUGB53BOtdw5pyfQO2MsX+Oj48axN1jjwlNxjpULwovOM7hJ/Fs7IvBwLOTx7jDE3YOq0b58uUpX748Ffr9jRfurO3xPW1LL+V6MjaQBW/uHN/N3n88IzkfOutKlC0Cgefvcu8rMAh1pCfPd844O0c/vivhGMNCCiO+Xvfx8PAweTx76EtEVzSEY7gucic9jWjUIHRhlRYH6revjRWXOTT5SII6HzYlB7Hxxi2OrBhNr+bfU9DWi0sHVzJjaGuq5CtIPZeDH2Xs6/RlcXF1oYjuBjtqDWXXe/VjCLcWdWf4kXSU+bUDxc092NuhE7M+4sckpxey8rqWTM3aUuft+jmdTVNaN4YHLGfZ7pgm1YBlsf+91Y+zGd3tUDz1ow4dYMAf/69p+OQzQK0yTkRE483qHunZ2sdkKUG+mmhzAUG4eXYw1StMwpRzZ+HvTMf9E2kaYaWa3FjCitMaMtVpQyNb0JGdxh0qMvjYUfZOv4LL7MIkRD6KMC/Yq+lwtiz+jSOL+2NmlZXC35Xn+8o1adC8IRVyfWiPq8ikKPo/5gzaSIUxsxn9y498t6oCdu+pH5zCh2uTajFisBtP0ZE5W0Hyve+CaLyLGrR8GzUwZmxNm5r96bp7CYvdejKxVPSeD/fYN5dj7OquDGtzmlk1474GTktWHLNBwHlPnrsLHzGu8wWjI2vnnbjVeUPE96Lh+G9U736bGos20b9MJnInYzfVwE1cf6rFSq/xrPceyLdv/+0SeJpzV8DCKQfZv4KvQgapyK/bXGljQjGFeE2iVroB3I9yXktamky7xaKWsXtthexfwOqH4JfrEfsGu3Dg7XmjIQRbrQGPDfPZ4F2Bn+K6jNcEGosclGs1lHKthiIE4X3zCLs2LGPW76vYNbURXdOeZ/Mgx1hHYkINrS1UGDOH0V0bUGpNoRhqChKUkfpTdrO0X24eZr5AaZddzKo5Beeb/SkZ/UUT5Wpfjsybw79YUSBgC8NctoaXBfs7Ipp7nJyyg2e1G2FqS3sNVqH6cUs5xq7pytBWbsyIY/ZD8X3OC0BvbotdMtYFnyOquxMT0ZMu93emveDSxchlbdpdNLx5xv0YvOBHVz15HcFrEgI5N38e18iJ8y9V3m7hoiVN8w7U1gdzd8589gWYvE2cSGgvWEPKSEMjQ3e+f2jkfsgseg86jWX53nQubuDi3z3oNfW/WE8+jk/U4OM89g+j04GRQALfJOOQWBTM0+WhiJMTThGOIllTo8ccO8fCFM6fno9zKb4s9JSkde+SeL+aTN+e27n87DWet7YztVFnVnoX5Iexjb8O3yCRMfKCPfNX8QAz/J7tZfGCBSx4eyxafJInFmZ4soPNCx7Fe3GJ8ILLW+cy64+93Iqg+zSYY5evCq2HLOfQ0SGU1npzfeparn+UfrTi2xHLGPBNMOfXdmPQrpjmmOop3mQ5S/oVJBXm5O67gkmVjdx2/x8uPU7yoX23jQFbWbYCDHrB/eDC8L5asGABS496o9ML9w8tYqV7zG2E6Ucn3U121h3CVt+Ytqr5wDOfPsNVNKT8vjB5lIXySVHdnYhoSE2VPtvZtWtXtGPnzsV0zW/6qoLlF3Dt7l3umjiu+C2hYwSP1mDYx9IlrzBixYO/BuPi4oKLiwv9h53ilSM8Yj2rV8Vz0ltUCd96wb+vPsT5B948vf4Xy8e0poSdR6gXPMH0BOSYeKdIbrCzzhB2vIpZY0qwkK/sLDbvns6fq0ZTydKTg7+1Z/yZ2JmEUaMGYf014njEqEHM14d67Ll5zhxGdz0Y56ERwZcXz0FPalLZq5/h14OOnD23sWXK93i51scpvQ0Z8jdgytmy9Nu6l8m1Y7mXm+K9GF6tY/l6yK4bymHvV7x6Ffl4cbI7hXnNtbGuXIynRSi84eSUbgzuPYpVN0zX0eUrT8k0IM99+Fg/Uvd2jp6T7ibbWw3nkElVp8E8rTVhO47qyE+75fNpaOPPqYXt+G3Di/cYvka81yxkR5AZFbucxutV1P56zkmXDPjyNzv/uPle59uyaJh+nEuP/qf4uJnhYMSTXfNX8Ji0fNOkotqH8BOj3kRfOP5bFrDppQZDynscWjQ/3KtbON+Vw14p0Go8OT91LXfieZ/E9IIhoqE1lzFdD/BKazpMko2uTNjXmaIpwDzPAObNKIel5ijLfhjBgQ9on4SIGsTeY/+QLGc4dw5sKUiBvF93SEhfdyOP5Qa//xC3iMLnilm11XjIHWbXijzEqSUj5fpt5pLXM+5cPM2l2y+4/3gzI+plMTGFRPHxGHi6bCH7sCDXry0pZuot59SRNt+Cx+ulLDscv5yJWjJRu3VpdJxiw08zORNtkMPA0y1z2fpCi03dMhSOw889zNDyebmCFcdi14DeoQN/LmpARm6xrUl3lt0zXc/AXdYvPEQIJSjfrZCJ6UV6CnXqTAkC+W/aIo68xyLUYIXTW/34bPlKjnzEswovuDCzFT3XQ1ZNFzq3+cAO3ooERxmEXzBGHrN10Xb8KEq/Iy+jecHPX/7NoJzC/WuLWHopfjPVE9sLjqhILqzpwcATgimJzUiDdXjiDT3Zuyxjeh0NHq+nMPin3e/dpiChogax89jfh5HXmxewxVeDXbnaVE/OY6SKmDFPS/YiJSmc0+azMwTTpQudKbZhwwZ8fT82zpM4GHnNscUd+fnnn00f7Toy3NWDQK6xauFZ9JShQtdc0TI6AegoQIvOpbDgNkcn7/3gkOr70ZKx00zGVNRy40wvKud0pnH3/zFhxp/8PnkYPRoVo1iTTfjIj3SdWgObONwhTD8O/EYQia0u15Ku0Vzm/myNt2Yd0+rO5bIJvWb8bwmuxyGTY3NaFYzh/jna0e57uM9qVm18/4rpMP1YUmvEtKhG7lyaSpew/9tPrWneqBpl8mSndK8DBJk1Z+DlEVRQevGToxaVfMEYHi/HdTc4pG1Gy2LRXTE9JWndMS8TB51l/5TTDHb9jrgmMQvzggceC/WC6xzoQYkoydrDvGDbOHrBYYpkR8kprF2mQcOHd+nVkpOmS5axr0AbVm7qzK8L/2Flp8wmPJ13UYMy740azGDIhaUsO+zCt++ZFB3qsW+h/JhQj90+1k9pxPvCNDp22coLcaLF2PomJ2l/7nh5edGjR49I53x84rsHmSI2bN++ncePH4f/HRAQOkk4LF1hQjB9+nSaNm3KmjVryJcvH2PGjKFdu3ZoNEkZzfbn1oFl3IqxXE8581/oX8SVFZfBIX9zWuSKSV4t6Vp3okaP0xzavYhVT2rT7SN2KoiKTluMbnsukGnMAMYu2c+WOafYKAAatGYZKFZlOAOnDaJRnrj3X0T9eC+Wc3K0ZKDazDV0P1iL368MpO+A0myb7BQ+T1cI4sr8+ZwjFTW7NiF3DOLpcKRR56oMOnqAU9M28KD5e3KbEkE/jr0dvVAD3nd24/p22Eqj0aG3tCZDliLU7dqSboM780MWZZokCUmdKiU5Et/UdbbZqkvbdu2kXQxHl74b5KYxWG6Ozi2WpJBaw9wlpqRfwU+mSg2QzLSXNb4Rzl/vLyVAvim7XnxjuDYqIYazMquimeg0Gklt/500+mWEjJ/+h8yYNFS6Nywi6fVIOhrJ/FvvcsvFmLoOM6nU/Uq0ZOxG8ZWzQ3NLSk1oCr7YpK4TMcizXS0ltxaxo6ZMvxI9M3qIXJKJhRFbKsnY2zFlTjfIw9mlxBqdFKu5Q7zfppJKTTEZeMZEm8HHZdQ3iAbTqevMtQWl6k9h/7e20qr5j1KtdA5JY6YRM3JKs1m3TKZvii++vr7y008/CSBt2rRJ0LY9PT0/mP4QkNy5cyfofb92fvzxx1j1e2Jw+vRpKV26tJQoUUJOnDiRKPdIThjFVzzvXJbzJ4/LybPX5f6rWOaNUyiSGGUQJgKJm8sYyckQOWA4IcOyI3bUkKnuMctikCeyui6iJ400+eOZhKmmuBiEIiLGgKuyeWgdKZHZUnSaMJk0ojXLKCVqDJcN1yKbOB9rEIq8M7S0sTYIRQzyXA51Ty8WaCVvlnFyIkpC0aBzvaQwSIH88+TOe54v6PUCaap9a+A9fb9BKCLy5pyLlNLFIpexRiM6fUqxcygg5er8Kn/se2QyH3V8WbFihWTJkkXatm0rW7duFR8f07mi44rRaIyVYZIrV64Eve/XTtu2bZPMIAwj7LvVsmVLuX//fqLeS6FQfHo0IrGekKBQhCP44XX3Lg+fvibA3I4sufOSxVpNSU0qzp49S69evQgKCuLPP//E2dn5k8vg4eGBo6MjALly5eL2bRPDRYo40alTJxYuXAjAmDFjGDJkSJLI4efnx8SJE5k9eza9evXit99+I0UKNdlLoUgOqDe4Ik5osCJdjm/41rkMzsXyK2MwiXj27BmdOnWibt26dOjQgdOnTyeJMaj4OrCysmLUqFGcPXuWK1euUKBAAdatW5fUYikUigRAvcUVii+QkJAQZsyYQaFChbC2tub69eu0b98+iSf9K74WHB0dWbduHXPmzKFZs2Y0adIkqUVSKBTxRC3lUSi+MP766y969+5NtmzZOHLkCPnzm9zhXKFINEQEV1dXhgwZQsuWLRk3blxSi6RQKOKJMggVii+IsWPHMnToUJYtW0bbtm0/+f0NBgN6fajaSJ8+fbQyReIQFBQU/nn8+PH88ccfkco9PT0BPmKPurhz/Phx+vTpg16vZ8OGDWqKgkKRTFAGoULxBdGlSxc8PDzo378/fn5+dO7cGZ3u02X4CDM8on6OSpjRqEgYwjaKhtCFHX5+MWXcTjzu3btH//79OXXqFOPHj6dFixbxnqIQ8OQ429bu4cy/D3nkFUwKu2zkd65Jgx/LkStK3jKj59+4up7lWRSbV6PRojO3ws4hH0XLl6VIRtP7lwqBPHbbyPqtx7h0xwtfvT3ZshembOOW1CtiE23+VOj9zhGQtwmd6jma3OD6zaVVzNvzhCyVf6FJCUvAgPtfc1l/IYhsFbrQtFRKE3IEcHXjTP76Nw+V+9fHSQvGh3tZuPoS77J2atBodZhbWpMuU0FK/uBMbms1HUSRyCTtImeFQhEXLl68KJUqVZLChQvLgQMHPtl9Hz9+HL7FyaNHjyIdp0+fDi8rUKDAJ5Ppa2Ds2LHhfTtgwIBI/X7nzh0BRKfTJcq9fXx8ZNCgQZI2bVoZNWqUvHnzJt5tGvzPyOL2hSW9HkGjFbOUaSRDxrSS2kwrGjSSxqayDNr8VCLu4BebbbksdPml9Yzr0fb3DHl1UKY0yCbWGo2ARnSWtmJnYyZaDaLV2ErRqpPkwJPI14TeTyNF6+wV009skMe/FxMLzKX+WC8RETG+3btUj0ay00/2vDJ11VNZXDnKVlWH2oqjJqbn0oileUFpNuKoPIppC1WFIgFQbrwiQZHgB5zetI5dZ2/z8KE3gZb2ZMtbhmqN61Ehl1WkuvH1+AECn5xg69rtHL50Dy8fc+yy5KJI2SY0bViAtFEcaiMPObF4FW4+TtTpVQ1TSQOMgWfZ9OcBHjjUpE+rwsTZ4+cuh+du5IzPu4fTaLTozFJgnTYr+Z0rUTp3qjiv6ipSpAh///03mzdvplOnTjg5OTFlyhRy5swZxxY/Dnt7exwcHCKdCw7+6Bx+ijiQOnXqSH0flqkkIRcUiQhBQUGsWLGC4cOHU6VKFS5dukSmTJni3bZBzjO3Ril6HzYjd7lBTBzTjUbls5JaC4Y3/3Fk5WgG9l3GnB+bk/rSAQZFSnukoXCN9ex2/T5CHiMh2PcBl/b9zvDfXNnapz05Kx1nZJHQ64yBhxlTvhKjLlmSr+ww5k3rRI1iWbDVh/DiykbmDB/AuM0D6VLYh7n/juKHuOSWi4Ig3ONPRvaoTynX8qSJ1UUaClSex6KJRUPzCYuRoDeeuF/YzoIJC9kwsh7P3+xj06QSpP5QWwpFXEhqi1SRPDDKK7m4qLWUShvq4Wv1VmKbIYOkTaUXrQbR6bJK9V575X4EDzc+Hr9RnsmJSbUkv1VophCNNoXYpLUWc61G0OgkY+bGMu4vr0gRhmA5IoOzIFnoJOtN7YgtIsHPJkpVkPy55729Txw9flObU0c4tBpbKVptcrSoRFwICAiQ8ePHi729vQwYMCDBN6OOSFiE0N7ePlqZu7u7ihAmEhEjhGPGjIlU5u/vL4Do9foEu9+gQYNEo9FI8eLFxc3NLcHaFQmR/34vLrbopGj5VfKvyYiXQTxXVJX06KRozR0S9pP7cMQuRP4dm0fMMZMqv96SEBExir/845JOLEgp5X8+KJ4mN7V/KLt+TifmmEvZDqfC245PhNAMO8noYC6WFJQeu32iXBVDhBCtFG+w32T2oiD3udI4LWJNBRlzxaQwCkW8UdvOKOKNEMj136tTteNKbhur89uCY9z29sH7yROe+Tzn9sE/6VTEk/1/NKXTiFtEjiNpKFxjAw88PfEMP57y8M5Zds9tS5GUN9japz3jL0mE+73m9LCy1Oi/m2eWtRi88ix3n/vw0usVvs/PsnF0TWyfbWBs1ZoM3u+bQM8Y5vEfxfsjrktPU6afOoObmxtubqc5deIgO9ZO5pfyOq7tG0C30uM59iZ+sllYWDBw4EAuX77M06dPyZcvH0uWLPlsI3ZCIMf/Vx7n777juwiHc6ny/Or6KqnFSzBC7k6ljmVueuyOnGNYCOLBvpG0/T43DtYpsbLOQuGynZh+4BnGJJI1KpcuXUJEGDp0KCVKlEiwdkM4xdLpZ9FQmebLmseQO1eLXcsRDGrRlEo/2OAb63UyOjJly4o5gp/XC0IAQ9AmZk9/Rjpa0evPiqQzcT8tmajy+1SaWgZxd9EsNibA9ExLHGk0tQ+FddfYXnMYe17Hrz2zbJ2YMbIEwgn2zbrM5/nLVnzpKINQEW8M92bQx+UfkKZMObOTiR3LkCNVqObVYE2OCj3488BMGlm84vLoiWyMYgDp9amxS5eOdOFHejLlKEaNLotZNTAPgZzhxNLbhK1hDTo9mI5jbmGXth8rbu5kTMtiONqGTvk2sy1KwyFbObS5JVk0bqyvOo6DQcQbLXZkdIDzy7syfE/sjUxL7HAsVpwSJUpQokRJSpWuSO2mLsw4fIKFdcy4c3c8Y8a9e7b4kDFjRpYsWcLWrVv5448/sLS0ZMSIEQnQcsJi5F9ObDrGjaepyJ4zJznDjxykt/t0C2QSkwAPV7pVdeGvQCPGKAaN7+Ee1Kw1hhMBdfht7ipc5/xCaf9VjKhSlxHHP49XfaLtZ3lnF/vuQYbsDWicI+Z76DRl6bNqFVP7lSNTLEUxGi6zZP7fBGCDY5n8WACc3McRgwa7KnWobhXztbrUdWlYC7w4zPGDITFXjDUaUuYfypxBOfFiFqO6HuZFvNrTkqFubZwIxnPvMZ6o/GKKREDNIVTECyGIy3OmcjjEiuqjptA2p2ntrUvTmt9G78fibgkyvAaiT8UzddVbj/9uuMev4SV7ps7iFllpO2ckNdKauk5LulrTGddoFc03LGHZmmFUahu/9FqhHn9VTreZxPaaw6j9ajo1rOPeno68NF8whuUOv3F77ArcRv0P5wRyz0qUKMHw4cNp2LAh586dS5hGExCj8TwXLkOp3+azalIuk6s3v1SMPOHM4mH0+20xZw02oXPBopRvmbAAH8OvzDs0jeopARpQv2ZaXqTvyo6xfzF4Vy2SbTK4K1e5gw7HYgWJ22xE4cG/yxg+8O933xtjMH4v3bl6cDeH/9NRoNAIXNqHTgT0v32bp+jJWTAvlu9pVUsq8hbMBJue4HnFB+rEatbfe9EZU/HtkNEYRwAAIABJREFUCFcGbC7H2NVdGdbmNLNqxn32n2TLQRbg8Z3HeABZ4y2hQhEZFSFUxAsjt/hr1zOscKZc2ywxvtw1WFLitzW4zu5GpYyxbNuEx2/kHw7ug3RUokKdmK1KLemp3qwWNjzj6rbTBHz0k0V/goT1+EGTsQ7Vi8ILjnP4SbwFNH2PzzBzifbSWa6SmRzO2ZOVMQhgODOadh22IdXmsndJHeyi1QgkfaXuNJjQlO8jfn3tilAoGwTcf0LCTHL4PJE3fvijwSylJRG/mUIgRwcUIl+ePOSJcBTO0JJZHpHbeHZzFVMmTmRi2DF5GrMXH+Fx+pr0HL+bLWd6UtwcwMhrH1+MgGUqqw+87DSkTmUNCMH+8dcWYej0ZXFxdaGI7gY7ag1l18t4tYYOMOCPv9ryU5EIKINQES+MXOPGFUhNPgpkjksLYR7/QAaGHf370bNzY6rkd6bXMR35Inj8BPzH3ZeQwjwvBS3e37JFwYJkxYDvtX+Jlx5+S7jHXyiYc6u7Mmy3T7za05IVx2wQgCfP3b+eMSCfc2e5jz1eZztQtWguHHN8S+V6Q1h1xT+pRYs3+mztWXDhFkdWd8LZKvpbW4sj1fvPZMYA50hRQMOVLey+qyNdmaLYfjpxPzmatPak0Rjwffw0ynxJDRZpspEpU6a3hwMWr+9w3/MhL4IlUr1va23jua8vvr6v8XI/xKLOhbAxviGFRWWa96xK7vBQoBabNKFRWj/vl++dnykY8PJ6CpiTKv3b/4BZqAEmhpiHkA1GAxo06HUxD7ZZFvsfcwbl5jlzGN31YJwdSfF9zgtAb26LnXpzKxIBNWSsiCdveANoSRltmCvkSG/Kd9yFV0R9LnpK9/ibpX3ebZsR6vFHvlarS0fe72rSs2MXevSuSu6wPSZe+uALaNJZkfoDwS+xTkUqwC8wgIQyNcI8/u2lprCj1lBqe/9OjXi8wXU6MBJI4BsjJLt4WXSEQK6eO8Vr4NT2PNSp34FyIVfZv3gCXQsf4d/j+xlR5gOW/meMJn1xyr5N4BLbII7h1T7+13ISHjRj3LCi0YaZkxNSohTfyGquHzjKMUN9qr79ymswp9TA3Rwc+LYefmxqkIoOW6O3odFakMLKihSAlVUF2s07QDZdUerO6UOvZpnYsK0B2d7qBstS35GXI3geOcVTKUyWGHSGkYecOumNOSXIUS7UotTYpsEGwdvbF9MmoRGfl68QLElhF/MgvwYrvh2xjAFbyjJ2bTcGtd1Dmdh0VtR2Tp/hKhpsvy9MHmUQKhIB9bVSxBM77FJBME95FDXIZWmHQ7jHn4lMFi9x/+8/vDyDibA730d4/ECaNNgAxocvef6hoJqnFy8AM/u0b4fu9IQ68oYYFDwQYgx9kVvEbJwlmMePLy+eg57UpLL/Wn6KGtJWHcWIUevYe3Y9c0cPZsT4lfx9bjoVLY6xvucaHn49wVJCnm1jaKXazLrsTLs9c2mXJaklSlx0aX6kyQ/wgLUsXvIkQVZVa8lApRlr+K1AMOd2dOSXcbfDV+FqCrSgyTfgcXUes/+JecFO0Lk/WHgcHFI1pFHYvocO2ckCBPxzjcsmBDXiw5WL99CSmfT53+/M6fRlcHF1wUl3k+2thnPoI9cOGfFk1/wVPCYt3zSpqPYhVCQKX8tbSJFI6ChO8eLgxSnOHo4cE9GXGsGmQ4c5fDj02D+smMnJ8mEev5VVatJmC/X413W15vrBPvRqtgWPiAaCRQmK5YWXuHHy6fskM/Ls2An+w4wMzkVJCWiwxTYNhODD65jCN69e4gPobWPenTbc4/8mmPNruzFoV9z2jTFyhnPnwJaCFMj7+c31Sww0mJO//kCGDmtAoQihMF3mNrSsAj7n/uH0VzI/yvfq77Qu2YB5lyvh8vcexlW3TfYKWYsjzSf2o6j+ATu7NGXgBo9o83uFQB4ens4Kt9i3qzP/noGufXDSPOfk0J78eStUaehwouuU1jhoz7Ckzs/MPvU6mhEa4OFKzyYzuEJOvl/UjW/f/hM05hWpXAE8WMKfSx9E2+ol4MafzN0J6ahAhe8+HN23LBrqSPq8XMGKY7H/vQsvuDCzFT3XQ1ZNFzq3icdqNoXiPaghY0W80OJArVZlSXH4H46O3oDHD83Ch2vi3uZbj/9QBcbt6Mgv475h85DcmAF6nGjUKhdjRxxg2/gLdP3jW5NGpiHkJPNmn0NPKcq0z4cZYMSBbNng9flb3Lkg4Bxd0IALF/kPPQXy5XivjGEe/46SU9jeajhBhT/2KY283ryALb4a7MrVpnqyXVYaGeEl9y9c44EuL86F7cMNIA1mmJuBBu1XoJSMvDg2iB/rTOKOZQemXZhNu0IxZ+NJblgWH8eq5fep//M6pjb5hg0la1GrmhPZ0wbjee0i58+d5OS5JwSb5aNu/wE0zxo7hZKixEj+6LmSyn/uY0nzxdQ524G8Gi021WezbrI79fqvpE/ZU2zp0I56pbOTRvuCO6d3snr5Xm69zkDVgauZ3PSdUa4jO01Hd2dO1Vms71iK2zuaU7tMDtKa+fDk6hG2rNvHreDM1P+jP7Vj8e/TYIXTiGUM3FKWEVdM1TBy59JUuvy8IlQGYzD+vp64X/qHc//5ksa8OcPOjqDCV6IrFElAUu+MrfjyCQk+KiMLITrSSeVfdsi/gdHrBDzaK1NqpRUzzKTmIHcJkQ9nAvBz6yPFNIgdNWTqzXcpBoJ8N8svDog5+aTljPPyPEr2AUPITVnXNpOkQC8l6+2MkJ3AII9mlxIrdFKs0lq5HRLluqBzMrUMYk426bI1NJVJWOaB1BSTgWci38govnJ2aG5JiUa0Go3JTCXZ6CqbgqM+mUFenJ8sP6ZDUuAkLocD3tO7cWPTpk0CSN26dRO03fhmKgmWYzLEEcllOVLcIqSRCQnYIl3TIoVKuiabfK1Be5tLVnJIt52RvwAB18dLtVRI7lzDZV8sM9V86kwlderUEUA2b96cYG1Gxef6GhnboZIUsNWJJkLeXotUOaVC4wmy43ZkRfLhzCEiBr9t0j0ToiejNJp5P0JJsDw8NkN6184lafSadxmDdGmlUKWuMmWru8kMISIGeXF6qnQolV5Sat9dB2aSIXs9GbjyX/GNUPt9+iKMN+dcpJTuw7mMNRqdmKVII1nylJVG3WbJ/vvRFIlCkaAkf2dckejo9OUYuH0J7tU6smROPUptKk2VhpVxymWD8ek1Lp07yz8nLvLojTUFqw2lc3sHdPDB+UOmPX4ws2rApF1juVd9CGv6lOXM5p9p1bgkuewE7zv/sG/5cnbeCiJfwTFMda0VITuBlgw/jabn79WZeLA1FYtuomHDkuSy1+H35BLHN6xn7009hZxH8WvdD0/t/7DHD0+0R5jT8We2aQCMBAf48Mz9Am5n7uEbnJOGs9Yz+vsvdxHFx6LnO9p0L8LM/jNw6V6E30dWxuHlQRb3/plVz4vRdX0THJLx6LmBGyzsNIjDvjmp/EsqLrhO5kKEcrMMVfi5bVESIJ3uZ0+q/M0YvLAZg+f74Xn/Lvcf+qK1zYxj7qzYmYi4mZWYyVWZ+d42tSnrMvOhEL2WnkxlezNjR2+m+j3B/T93vAz2ZM2dHYfU7xvu1ZKmZF8WnurDH17/8u/tZ7wOMSdN5nzkyWFD1F+uBgt+WCS8XhRziymKTuZUyOTI0lVYxj3jsvc+m0KR6CS1RapIPhjfXJRNY36SavlSi1kEb1erSyN5SrSVsVvvRfLs4+fxiwQ/OSCze1WTgjbaCBEGM8mQs4Z0HbtXbpuIVIqIhLw+KrPaFZUslppIkYkUKQtKg16b5KpfhGeKq8dvKpexRiM6fUqxcygg5er8Kn/seyQJHxsM5XONEIqIGOSBHBxXVwqlftv/Gq2kTV9NBq67LyExXvXlYSpCGOw+Qsq9J3d33mx/yH8m2kqOEUKFQvF5oRGRr2hNn+LTYMDvmQfu7k94rU2DQ/ZcONol4mYaRh88793B/RmkyZYbRwerWG3dYfR/yn+37vD0tRFzm6zkyZ+NNMlkKtfmzZtp2LAhdevWZdu2bQnW7pMnT3BwcMDe3p5nz55FKvPw8MDR0RGAAgUKcO3atfc3FuzN/Vv/8dyYmVyFHEid3FdUxINx48YxZMgQAMaMGRP+GSAgIIAUKVKg1+sTLH912bJlOXHiBFu2bKF+/foJ0qZCofi8UUPGikRAh1W6HBRM9/6FGQmGNjXpczqRPudHXpYiA3mcMpAncaRSfAizNGQtVEKl4PqMuHv3Li4uLty+fZuSJUtStmzZpBZJoVB8IpRBqFAkQ8JS1r14Ed8Ee6bx8vKiefPmkc75+fklyr0UEBLybufMtWvXcvny5fC/AwICotX5WHx9fRk7diwLFiygb9++rFq1CguLr2duq0KhUAahQpEsqVSpEkWKFOHmzZs0a9aMyZMnky1btni3mypVqvDPa9eujbFeQg1dKkKJOPx++fLlSAZhfBARli1bxpAhQ6hSpQqXL1/GwcHhwxcqFIpkhzIIFYpkiI2NDRcvXiQgIIDJkydTvHhxunXrxsCBA0mZMmWc202VKhUbNmzgzp07ZM4cOXm1l5cXvXv3BkINDUXCkTr1u9wUTZo0oUGDBpHK79y5Q8WKFT+qzZMnT9K7d2/0ej2bN2+mVKlSCSGqQqH4QlEGoUKRjLG0tGTYsGG0b9+eAQMGkC9fPsaPH0+rVq3Ch5U/lkaNGpk87+HhEW4QKhIPJycnWrZsGefrHzx4wIABAzh69Cjjx4+nZcuWcf4uKBSK5INa16dQfAVkzpyZFStWsH79ev7880/KlCnD6dOnk1osxSdmwoQJfPvtt+TKlYsbN27EyzFQKBTJCxUhVCi+Ipydnfnnn39Yvnw5DRs2pHLlykyYMIFMmTIltWiKREZECAoK4ty5cwkyn1ShUCQvVIRQofjK0Gg0tG3blps3b5I1a1acnJwYP358rK8XEfz8/KIdb968SUSpFWEEBQWZ7P8PzdvUaDQMHz5cGYMKhcIkyiBUKL5SrKysGDt2LG5ubhgMhlhdExQUhFarJVWqVNGOAgUKJLLEXy9hW8sAjBo1ymT/a7VKnSsUirijhowViq+c7NmzM3To0FjVff78efhnS0vLSGUiQmBgIAB6vVItCUnEIX29Xh+pfyMaiwqFQhFXlEupUChiTdgCBHt7e/z9/SMdt27dCq+nolUJi42NTfjn//3vf9H6HpQRrlAo4ofSIArFF8qbB8fYvesk158EYJYmFyWq1qVS/tRoAcELt+VLOfrEjBw/dKFhMUuTbRh5xMklKzn5LA3fNu1AlexqxWlyRwjksdsO9p64xZPAtOQpU4ua5bJgBYAR71OuLDnqhT5LTTo0L/T2fFSMPD22mJUnXpHaqTntq2dG9ykfQqFQJDjKIFQovjCMvOTMtMY0H3SAu0FmpLS1IPi1H0bJSJXeq1gyrSIOGjuy6A8wfcAeLFO9wP7pSL5PEb0lz3Wdad5hFzZ5Z7La5dMZgwbvYywYOJSZO87j4ZuKbPlr8vO4cfz6Q/pkNWxh4BoLKzuxNP3fnFxTPlJZyN2pNCgwh+ybbzCz5qdRxcagcyxu2wiXde74Wthgrffhla85hStMYs7OHpS20mKdw8jpGr+x/eUaHmU+zoTy0VPYhXgtp1+9TuzyrsbQK32VMahQJAOSk+5VKL4K/A/1oZXL32jzDmLj9Vf4ePvw2n07/6vow8EZLem70AsjWjK2mMvUelrcfabwvwHn8Y/STsjzFfzWbSf+Upsu27pR+BNpA0PICSb9UJ6BK/VUHbqMFUtdqCSrGV2lIWPOJZ8MJ0bDLTa1q07fg4LREPm5Ajxc6VbVhb8CjRg/0SMLgZwbXoeea19SrPMe/n3tjZfPA46NduLx4b706/4P/oAufTumza5BGs1ZNtabyPGgKM/FQ7Z268g673R8P2UuvQupqLJCkSwQhULxxWAUX9nZErHmOxl6OXJZ8OMJUgWkYHFX8Xx7LuTpYmlui6TiOxl6Mji8rkEeyqamOjEnozT63UNCYnn/x48fCyD29vbRytzd3QUQQAoUKBBDCwZ5NOc7scdJ+h168072O6OkAhpxbn1SAmIpy+dLiDx1my09nVOLWQobsTXXS6nGh0VExCCP5dSijlLOTispbGzEihzSbWfwB9oTGTt2bHjfjhkzJlKZv7+/AKLX69/bRpBsla6pkBwMlsMRbhks+8UlA5KdfrLv7RfBIPdkbQOt6LGSyr9eEP/w2gZ5uqGeZNVopEippfKvMZZdolAoPntUhFCh+KIwkKHWcHr17U69gpFLJIMD6YGQ5y/xeXtOl/4nps+tha3mFOsaTcUtBMDI88096LNOKFhuGpN7Zf1kQ35GnrBr3SnS5upM9wrvxrB1OQaw87k3h5Y5E32A8ssihBPMqP8L2142Z9zhOTTThoSXGc6Mpl2HbUi1uexdUge7TyiXGbWYeO0iqy/0pFykEWotWh2ABo2EnXGk4YJFNEnjh9v07kw8G7otUYj3GgZ03kagNKH3+p/IrYKDCkWyQRmECsUXhAZrircayeipbSgZ6ddrxG/rZo5otNg6F+XdJiVa0jebx7Qfddx9NJGRE+8Q6LuV4V03E0RL+q5tQY5PKL+RS1w6D3blimHhtpRxv7aiYd3m9Bi4getaayySgUbSkpvmK69y9tp8epdMGW5kAeiztWfBhVscWd0JZ6vY7f2YcOixzlqE75wyhit+CfyPAyMGsvSRFY69WkQyFPX2bZk2pxY2mhOsazWPyzznQL+OrHmRlapL/qSd2t9aoUhWJAP1q1AoQp6s4tfuW/CTKjQdXo6Ia4q1ZOHHeQtpnMabk0N7069XP1w9c1Bj5XRafeKMdcJTPF/CI/fBVPx+OFvu6Umd8j57fm9No8zdWPvw08qTGGhxoEjFgqQ1ET3TpC9OWSebJFe8Bi4zp0EuHDPmp9aoa+RuuorF04sReS16mDOh5fbNUfTu24e+S4L4pvZMJv2UvBb/KBQKZRAqFF88wQ/X0KtSW1Y9ykH1+QvoYyJhiN6+LdPm1ialZgezljzgmwazmNTC/tMrAIM/gcDTQ55U2XCJfzYvY9nao5z5qxO2/gv5feA/BH5qmb5ChGCs8zemTad21CsCbhs60bnnXzyIssAl1JlYRJM0Tzk4fSWv6chA13pkUkPFCkWyQxmECsUXzKuLU2np3ILFN/LSdP4+lnTKFsN8QC3pmo7hl4JgRyUaza1JuqR4qeusSAE4Zv+FgbVs3yogLdbl+tD2WwNe249wK/ksNP5s0VOMVhMmMnbSAjaeP83cas84OrsTIzdFz0ett2/FsN45MceM4mPG8OOnnPioUCg+GcogVCi+SEJ4sPsXqpdzYc/D0vTYfJilnXJjevvpMFJiaQE6LLFM+YnEjIKGnOTICtrUKUmhiXg+DbapQfxCCFEG4SdFqy1AW5dWZOQ+lzacI3oiPA0pLM0BDRYpUqiXhkKRTFG/bYXii8PA/U2tqVp3Lnd1TZlwZj9TGmT4IjYH1lGE73+Al5f3scvr3XkJOMapC5C6chFyKa2UKBgermFo07r8NOpctGF5sbQIXd1tTALBFArFZ4FSvQrFF8abi8No3mItr3Q/Me3caroXS6JwXxzQkJqKA0aQx3wtExqPY5PbQ54+OsKidr3Z8LoYNYZUxzqphUyupDXgvnkHB0csYu+rd6eNvOCY60Y8SEueak4fiDIrFIrkikpdp1B8QRi4zfKe4zkZZEa20kHsH92B/VHqWGRozNDxtcnymU78N88/jLU7A+n8y3iafzeEYNFga1OOn5a5Mvx7s6QWL9mitWzMbyPHs2PIAn6rbof32PoUtLzPqWXD+d+i1+Qp+Af9fk6d1GIqFIokQhmECsUXhPHVDrYeDV0l6n5yFUtPRq+T2yIvXcfXJsunFy+W6MhYZTzbbo3lzeMb3H5mRZb8jtiZJ7VcCY8Z9ZkTYHpSpFm11Xh8wvmSGiz4ZvABdqfuQ4+hY/m5yhgEDTpdRso2nc/UuR0oqsaMFIqvFmUQKhRfEGY2fdglfeJ0rY68/HpW+DWBZYo7WlI6FKSIQ1LL8fWgJQPOPVdzpuss3G9c52GAA3mL5MT+velhdGQbcJ3AAZ9KSoVCkRQog1ChUCi+NszscCxcFseklkOhUHw2KINQoVB8NF5eXpQqVSrSucDAd2tXRdTeMQmJv79/+Oc5c+awdevW8L8DAkI3igkJCYl2nUKhUMQWZRAqFIpYY2trG/7Zzc0txnrKOElYbt++Hf754cOHPHyYDHL8KRSKzwplECoUilhjaWnJrVu3cHd3J1WqVJHKnjx5wo8//gioCGFCE7Gvu3TpQrt27SKV+/n5UahQoU8slUKhSE4og1ChUHwUefLkIU+ePNHOe3h4JIE0Xx9Zs2bF2dk5qcVQKBTJDLXJgEKhUCgUCsVXjjIIFQqFQqFQKL5y1JCxQqH4KObNm8fNmzfJnTt3pPMvXrxIIom+Lk6dOsXs2bMjnbt8+TKVKlWiadOmSSSVQqH40tGImv2tUChiibe3N3Z2dh+slytXrkgrYxXxo1WrVqxateqD9ZQ6VygUcUVFCBUKRayJuNdgly5dIpX5+PiEGy3m5skwD10SUrBgwfDPJUuWpFixYuF/BwQEsGzZsqQQS6FQJCOUQahQKD4ae3t75s6dG+mch4dHrKJYio9Ho9GEf65fvz5DhgwJ/zvMINTrlTpXKBRxR2kQheIL5c2DY+zedZLrTwIwS5OLElXrUil/6hhXihn4l/0zt3DFLwMl27Xl+wyfVFzFZ4IQyGO3Hew9cYsngWnJU6YWNctlwSrGKwzc3TOLjZeDSVfyJ9pUtFerERWKZIgyCBWKLwwjLzkzrTHNBx3gbpAZKW0tCH7th1EyUqX3KpZMq4iDJvp1hmMT6NFzMf9hQRWv0uyenAfdJ5Y9hH/4o/YvrHpq2qRIZfMTU/7qSYlkYHGE3J1KgwJzyL75BjNrRla1gXfWMabfWJYfvcMrYyaKVfuFYb/3pmIiG+nGoHMsbtsIl3Xu+FrYYK334ZWvOYUrTGLOzh6UNmEVhvA3M3/qzTRPDXnSGvj2WX+cTHy/FArFl00yULsKxdeF/6E+tHL5G23eQWy8/gofbx9eu2/nfxV9ODijJX0XemGMco3wmr8XLMZLV4lKToHcnrKYI0mQXU6DFely5A3f3DrsyJ3xDXfOnef5Cytsk4GxEeDhSreqLvwVaMQYZZ2H8c0OBlRqxsKz39B+6hJmjqpI8J5f+aX0dM5G/cclIEIg54bXoefalxTrvId/X3vj5fOAY6OdeHy4L/26/4O/ieuCdi1gvWd6ylcpxOPnS1l2xJB4QioUiqRDFArFF4NRfGVnS8Sa72To5chlwY8nSBWQgsVdxTPKdSF+i6W5FilY2lWO/y+XpCCLdFzr/9H3f/z4sQBib28frczd3V0AAaRAgQKxbjNErsvi6jrJxM+y6sFHi/RZYZDHcmpRRylnp5UUNjZiRQ7ptjM4Qo0QuTfVSdJTQcZcfXf25Z4WkoOM8vOKNybbHTt2bHjfjhkzJlKZv7+/AKLX698rW5Bsla6pkBwMlsMRRAqW/eKSAclOP9kXEvV5nsm6+kgGGskfZwZLSTRStO4ueRWbzlAoFF8UKkKoUHxRGMhQazi9+nanXsHIJZLBgfRAyPOX+EQqMfJ85SL2GG0p1KI2JX9qTXEe8M+0jTxK8l1KDNyf3Y7+e7NRY800mmVOannih+HMaNp12IZUm8veJXWIukGPkWf8vfMiNvZ1aFDg3fmU1ZtSzfIJlzedIiCRZDOjFhOvXWT1hZ6UizSCrUWrA9CgiRrNfL4a162QrkQDGhRvRfOiwqPti1j9NJGEVCgUSYYyCBWKLwgN1hRvNZLRU9tQMtKv14jf1s0c0WixdS5KpgglBm6xeuFxLKlJzTZ2aLO3pVU5eHBqMctuJ61FGOK9giEDT5H5+/GMbGr7xSskfbb2LLhwiyOrO+FsFX1o1chVrl4BS6c85IwwNK4lL3nyg8/FG3gl2r9Ej3XWInznlDG8nyXwPw6MGMjSR1Y49moRxVA0cH/JAg6SDqeu9clKfpr9XAI/drN9tjtq4FihSF586fpXoVAAIU9W8Wv3LfhJFZoOL4dlhDK5sYQVpzVkqtOGRragIzuNO1REw1H2Tr9CcNJJzbXpw9nlU5xak5uSJRnMHdSkL05ZJ5sYFavwktdeYGlrS8TH1WCLdWowvHiF9yeQ08Bl5jTIhWPG/NQadY3cTVexeHqxSN+bEC6yavFl0lCf+i1SA1rSt+1ANd5wY9QS3BJxvqNCofj0KINQofjCCX64hl6V2rLqUQ6qz19AnwhDkUIg5+bP4xo5cf6lCtYAaEnTvAO19cHcnTOffYk1RvkBDIFbmfm7B1lK9aF7yWRgDcYKAyFG0Gijqt7QYVtNCNEWBCUGQjDW+RvTplM76hUBtw2d6NzzLx5EiE7K6YWsvK4lU7O21EkZek5n05TWjeEBy1m2O9B04wqF4otEbTujUHzBvLo4lY51XNj+IB9N5+9gQadskbaSMRj2sXTJK4w48uCvwbgcCH3jiyaQV47w6L/1rF41ltrtrT+57AG7lrP9dTqqdmtA5q/EHtRgTWpbCPLzI+LIsOCLny9o06YmzSeQQ08xWk0IzXZinNCXpbUL0W12J0ZWvsaCRikRfDkybw7/YkWBgC0Mc9kafm2wvyOiucfJKTt4VrsR6T6BvAqFIvFRBqFC8UUSwoPdvWjcdA5X/UrTY/NmJjbIEG1fQf8tC9j0UoMh5T0OLZrPoYiFmhRoNZ6cn7qWO+07kfPTCY/gw6ENW9HxE9WbpPqEd05aNOQiZ27Y9687L4RwQ1i4h/s9SFEyO+k+sXGs1RagrUsrRv6/vXuPz7n+/zj+uK5rB4w5bMaEDRONnA85hVDOMxZ/AAAUqElEQVToS8qhiTAJkULxpRE5FLVOS0kOmfOK5NuJ0kFEGlJ9oxy/mw0/xkab2eG63r8/SBsbU7s2dj3vt9vldvl8Ptfn8/5cLrue+7w/79d7/Qp+Xr2L8z1b435+HZHLwO5miPl6AfO/zv4am5vhyDcLWR7Tk9EBBdteEXEOdRmL3HTsHPmgP526vc1hWx9m7dhIeA5h0MEx1i38iBQa8tS3SZw5cybb41TSV0ysbjiyZyGLfy7YwSV2fmLbZijdoD0dcp8io8ixEkDrduU4s/8r1p/KsmLPBjYleBN0dzM8nXRse/wqJvXpxsBpu7i8s9cU87xwXMeFPxJXLeDjdHfaDfuBhMs+N2fOnGLb0xVI5is+ifi9EO9BFZH8pEAocpM599NkQvpGccY2kFd2rWRkoxI5bmc/tpQln4G/z4M81OjKy05uNKX/kFvJYCcbw39wWrmTnJizO/nxiIXyLRvjU4DHLWwWPGgwYhx1PFbzco9wNhw8Sfx/FzO6z6skMJBBQ5w4LZyPnZi1H/P1lIVsOPPXYgen2bJkDbH4UPPu+rhzmPcXfEMmTWjzWB3cr9iRG3UeHUoT0jj4ykK+VSIUKRIUCEVuInYOsHTUC2xLd8ejcTobpz9CaGhotsfwCZ9whEwOL5zPZopTc0QIwTl2Q9oIDB1GOzKJXfoO61IK7jwscXEcxwPfwKo5BI6izVZtHItWP4bfgQl0CfKjcr0hrEvpx/jo2dzrxN5za7FejHuuDn8wn3H3TCbyyx1Ef7eWt4a2pfeCs9QMnsJToaVwHHyXJd9BpYAQ+gXnvC9LtUEMuhOOsJIVa3Ka30REbjqFXRlbRPIuPelV0+XijBW5PYI8nzc/mK1mciCmHJ3NyzG5789ujpuV3TBulDW9I04a+zWO74yZSlxWRoI5vHuH2f37CZN8jTc+P2YqMebCv/e2iBDT2NtiLGDAYmw2f3NnyAITnWSMw6SZXePLGw9KmvteOHqVz4PdnFrWyfhYrKZO0yUmzpGnMxaRG5gGlYjcRNxLj+ZTMzpP2zY9bJh2jW2sVCDkP4aQf940uV5uPgTWL9gOcysVuGPUSnYMf5OY3/YSf96fW+tVx/fSjYseNJx9grTZ195TuX6fk9DPue0VkYKjQCgi1y0hIYG9e/dmW3b06NFCao1rOXHiRLb3/vz5C3d/ZmZm5n0n7uUIuL0VGiAsIn9SIBSRPLNmKagcHJzLDWaA3a6JzfJTXFzcpecRERFEREQUYmtEpChSIBSRPCtf/q8yxLfeemu2dRkZGRw+fBhQIMxvKSl/jfjx8fHBxyd7V/O+ffsKukkiUsQoEIpInlksFozJuWZhbGwsAQHqhHQGDw+PS8/HjBlDWFhYIbZGRIoilZ0RERERcXEKhCIiIiIuToFQRERExMXpHkIRyTNjDL169WLr1q1XrNNAEudJT0+/9HzWrFnMmTMn2/rjx48D5Hp/p4jItSgQikienThxgg8++OCa29lstgJojesoW7bspefJyckkJycXYmtEpChSIBSRPMt6BSprbTyA+Ph4mjdvDigQ5jc/P79Lz8ePH88TTzxx6e/nz58nKCgoW41IEZHrpUAoItfN19eXW265JdsydRkXDG9v72zv/Z8zlSgQisg/oUAo4kSOk1+zNHIHiX4dCR3QkNK5bUc8WxetIPrM7XQe3ZnbLAXaTHEhhjSORX/Mhq37OJ7mQ82WXenSujJe170nB4k/LGXJ1yVpPbonjT3/Wn5880KWf5+E4yqvtppyNOg7mA5VLDhiP2VB1B5S/TsR2r8+3jlsn/5rFG99cpSAe57k/voKvyL5zoiI02TYPzWjymEq0NPMPXmV7Q5OMi3B1G26zBx1FFz7rtexY8cMYHx9fa9YFxMTYwADmNtuu+0qe7GbxF8WmLFd6ppqvt6mbMVapu39s8z6wxnOa/gNxW5O74wwj3Wsa6qV8za+lRqZHsMiTXRS7q+YOXPmpfd2xowZ2dalpqYawLi5uV37yGk7zfwHA01pi8XYipUxZUvajJXipn7bN8zW5Os7i4xTy01oeYwPXUx4ls+2w6SZ6KfKGPeL7c3t4U6QeXxD5oV9fd7XVLFgilHHjFr/R47HS5zXwhTH0/R9Pe36GioieaJfs0ScyGbtwKBHfEhkIxsjT+ZyxSSTvYve5Ucq0eTJHvgX8auDmfFvMaj5EKJ+b8rQiGUsmn0/3tETGV7taT49W9itc77kbaPpeMcTfLi/IQNfXsic6Z0w6x9hQKNwtmc477iGNHY9+y9GRSXRaOh69p9NJOGPOLZMr8+xTWN5auT3pOZxX3b+x5rBA1lyMvdtLPjQY/Z2oqOjc3xsi17LuBbZ7zU9zx4+6jyVDS7wORC50ajLWMSJLHhw+7DhNHppJnvmf0DMU8Oodtk2mWxh+eJ4yjOKXr2vv+Pu5mInfvlcNp1rysi1i5hQD6AbHX0PU+feJUStmU3XUM9r7eSm5SCO9ya9wfGMgYT/sJiH/AB68UDb4nQMmkH4mwOJGl3eKQViM9nAwjeP4c8zTJ1zN9XcACrSdNIMBszpyOrI1WxZeAedrjkeyE7colDGrqvO7fXiifs5560suFGuciOaNMnr14yF0pX8OH70DaaN7E6zpXdS9tovEpF8oiuEIk5mrRHKgFZw7PcoVh68sk6c/atFRMW7ETBsMHd75LCDIiYj/Tw2SlI8y41inn4+eJFGxrmr3XV287Ozg+jvoHyX3tz/18BhrDUeoGudM/z2/tckOenY7nRl9p6fWLl7FK2zZTQrVhuABUseyhhmHnqV4SO3EjhsHmH1UvKvgcaNKiGzGVc3nZ3LhjN5vUrriBQkBUIRJ7NRjT7DOmBlK5veOUTWsbgOktj47lKSaE6HUQ1wL7RWFhQbgSHDaVziG1YNjuCLA8eJ37uGaU8u4Cy96dqreGE30Mkc2B1gs7mT/c4AOw4gbfchYp1WW9oN7yr1aF6/4qUf/CbtIF9OmcDio14EPNH3sqB4Jbv5kTceGscBz4k8/3oLvPK5reXTmvDUknHUs+3loy6T+MxZ6VhErqBAKOJ0Vsr0HkL3Ymkcem0VP2W5CGbOfcjyFeBfewAP1ym8FhYkt6CxLFw1ALdtT3J3TX8qB/ciYmtLhmyaQ/8Khd0657LRgIbN4NjHK1h74q/lmb+9z0e/Qua5M5wpgOo9dn5hbo8aBFSsTddpewjqs4JFrzai2FVeY0jhl+l9mbW9BX03hHGn59XToINEPnu+A23bts3xce/wT0jM4XXFG05l7sTqnOItpo/YxOl/dKYiklcKhCIFwFqsG4MGWDme/j5RO/78InWQuOpd1jvKUX90bwKveFUmR7e8wb/73EnDWpWpUvU2mrUbzMzV+7j8nnsHcWx5eywh7epRq3JlAms15Z6HXmDtr+eybWfssWyeM4p+3dvTrl13+o+Yw8a4TKecc84cHP94IPf0eo+Mts+x+LNv2LgugsFtfuKNtj2Y9b0TR1XcAKwEEjJlIKWtSxjTrDfjXplLxAtD6Nw2khM1vLDigXsB/FQ2ZOBduxcPPzqI7vUgevWjDB31BXFXyXjnoicx5LljNHhmAWHN83It20FywhFiY2NzfJyMTyanT56FEjSYsoR/18lg18rhTPrkj797miJyPQp7mLOIq0jfOcrUxWZahUab88aYTHPQzG2FqcwjJiol+7YOk2x+fK2NqWItY4K7jDYz5yw2ixe9Yp7pG2x8LGVMhzHbzZmL29ozvjcRHbyNV7Fg023kLDPn3UizIGK8eaheCVOaVmbypnPGGGMyzWET9YCHKV2ilRk8fa55Z95UM6RJKVORB83Cw3k7h39adibT7DIz62KCSk030Vmqh2SmfGge88PUaX5jl93JH5nm2KbpZsCdt5mqFQJMo/YDzOTlP5nlPTG3+oWb33I4//wqO5MTu32PWdjZYjwIMENWp+S8TcoGM646JrhmhNltv7DMYVLNp/0wvrmUnfGkghm8PG+lhDI+72uq4G7aj/yvSb+47NzOp00zG6Yqo8xHSQ6VnRFxMgVCkQKSaX42s2/HBDLWbEg3JuPwFNMGq7njoe9M6mXbno8ebRpaS5oOT/xgTmdZbjenzZbRlY0vd5nnf7/wpfzDhCrGhxZm4ubs9dvsKRvN+JqYWtVeN3scxmTsm2iaU9E8/G6SufidbtKTFpg+NovpNHa/yczDOfzTQJhuVplBYJr12ZztnB0m2azpgalOmPnWVcoRZpFhtpkpNTANun5icioH6MxAaIwxGRv7m6pYTbOQzVd8Fo2xm/+b08QUx934397etG//16NhJZuxUd7Uatve/Ou+t80Oe/4FQodJNjsnBRkv3E3zkC/M/+a3VCAUcSJ1GYsUEBvBPDSkMYms5YONqRyMXMrP1Kfdky2y3btlOMsXL7/GKUc/RrzQNFvpDStluWPSIma/GEobD4M9cx1vvXSEavc9x4TWJbMdz1qiPU+/M5cRYU0pbsBaoiMjX3mFofd5X7pXxFK6KreUMaQkJuXYfZffLNzCLVXgbPRP2bonHezn9/3gHlCRSkW4GJbhD9Y/eRvN2rzJr1nP/7tFrDroQ+3uLXDWsBp7/Com9enGwGm7SLu8XcU88QRynVqkTE3q1A/Gz3qa06f/fJzi7HkLhgxSTp0m6VQK+dnhb8GL+lMi+XfdDHavepwJWw1OG28jIqpDKFJwbFQY9CgdRw/ny/eWU2XnISr6v0L/ppePN93P7l1Qqnk7OpTIYS8+nRg87sLzzL07+dlektp3t85hui8r5dsN54l2F/96y108PCbregdn1s1j7alA7ulel4Ko/ufGHTw8pjFvj53O0DG+TH+8E7WL/8pHzw0j/NdbuGd+nyvqNBYlFry4vZ4fhyNmM3lWY14fVRfr3kgmhy7AlJ3G44PLOu/Gbh87MWs/ZtP7VdnwZCO6X5xH0cFptixZQyw+NLu7fg4DS6z49VtBdL/sSw3nWd+/OAOWt2D015/ylO+fy/OPza0lTy95mo+bhhMVacGCC9RlEikkCoQiBcjm3YeBDw6nx3+e4bVEb9rM7pfDvMUJJJwAz+Dy1wxp5uQJkihNKf/r/6I8++NM+g5ci0/n93jmvquNL81PbtQc8xFrUgYzIvwh2rzuwGDBy6sxD4YvJ3yIXxEf6WbF/5HFRO7vx4jnWlD1GbBSiuCWYcz+KoxWTqw7ZC3Wi3HPvcDHYfMZd085EmfeR3CxI2yPfJapC89SMziCp0JLAZBBFE9UGctW96G8um8Kd/2NbwoHZ9myaAihX+Qy9Y6xUeWuZ5kyoOpV91Os4VTmTvyQNjMP5HkmFRG5fgqEIgXISlk6DRtAwKolpNKXbjkGoDKU9YWMpLNcqwKJtUw5vEkmNckOXHOKiYvsHN84jj4955Dc4B0WfdCTqgU4XZ4Vf9pO+oxfn0nh//b9TlyaD9XqBFDORX4aWalG11lbORAWy4EDiVgqBhHk75Xnf72/y4IndZ/5ks9KjebxSTMJ7TgDgwWbrSKt+rzDy28/QsNLH8YUTsUd5QyJnP/bR0xl35eR7Mt1vRutPUYQNqDqVc/9z67jCR+2Yup//3ZjROQaXORHsMiNo1i7SA6ZyFzXW6lF/QawdPWP7Db30+qysGbP2MBL/d7H0Xca4+9tTF3LqxzavoeM0CsLW6d+M5nHFnrRc8YEugWAIZm9C/vxwPBN+PaJImrJ/dR0dhLJjdWLCrUbUcRLD+bKrVRVaje8+tWx/GalAneMWsmO4W8S89te4s/7c2u96vhedinancGsPHCQzkFQKpd9WShGl2WGk8suX+5Bk/BE0sOvo2GdVhBrVuS62ubWksm/GCZfxy5F5PoU7d4ZkZuQlTK079eDdJYwf+Xpy+7ztxO3eCavvr+BQ+llsXp0pveDcHheBGtOctmW+1k5cwZfLTtIqi8Y0tk3vztdhuykVtgXrFv298NgQkICFosl2yMgIOBvnrFcS3p6+qXnkyZNyva+Fy9+YRhKZuZ1DAtyL0fA7a1o2fTKMAgX6lpuDI/iXM+ONNBlAxGXoP/qIjegkj1eZEbXOox8+C4yY6bzZN/mVLXEsn3NLMImfUfFpgsY16c4VorT9aU3af75SMY2s3Pk5dH0al0Jjm5l7YtPM22jPx1eC6OnFzgOvshjI77Bs/U0HmwQx7cfxl08moUSAW3o1Mjnmr8henl55an9WQOM/HPbt28v0OMZzpJSdSpvvNg+1yuEIlK0WIwxGskvcgNyZPxC1JjHmBy5jUPJFwZfeHrW5O4h05g260EaZKkyc27fu0wc/iyLv43nrN2AxUb5Sp0ZOP1FJocG400me56tRsPpcVwZ1Ww0eWAjm9e0u+rUZX8KCwtj3bp1VK5cOdvy1NRUvv32WwBq1KjBgQMH/snpSxaPPvooCxYsACAoKIgaNWpkW3/w4EGmTJlC//79C6N5IlIEKBCK3OgcKSTExnIiw4eq1f0oeZVuXvu5E8TFJpBZJpDAiiWcPlAhq9jY2EvdxgqE+StrIJwxYwZhYWGF3CIRKWrUZSxyo7N64Rt4G7552NRWwo+A2n5Ob5KIiBQtGlQiIiIi4uIUCEVERERcnAKhiOQ7i6UAK127AHd3J05hIiKCAqGIOIECTP66fES3iEh+UyAUERERcXEKhCIiIiIuToFQRERExMUpEIqIiIi4OAVCERERERenmUpEJN/FxMQQExNT2M0oMvReioizKRCKSL47d+4cgYGBhd0MERHJI3UZi0i+KFOmDJ6enoXdjCLPz09zVYtI/tMVQhHJF97e3rz++uvMmzePtLS0wm5OkdSsWTNCQkIKuxkiUgRZjDGmsBshIiIiIoVHXcYiIiIiLk6BUERERMTFKRCKiIiIuDgFQhEREREXp0AoIiIi4uIUCEVERERcnAKhiIiIiItTIBQRERFxcQqEIiIiIi5OgVBERETExSkQioiIiLg4BUIRERERF6dAKCIiIuLiFAhFREREXJwCoYiIiIiLUyAUERERcXEKhCIiIiIuToFQRERExMUpEIqIiIi4OAVCERERERenQCgiIiLi4v4fj1RyubrU0QEAAAAASUVORK5CYII=;" parent="1" vertex="1">
                    <mxGeometry x="180" y="160" width="644" height="342" as="geometry"/>
                </mxCell>
                <mxCell id="3" value="5V" style="rounded=0;whiteSpace=wrap;html=1;fillColor=#f5f5f5;strokeColor=#666666;fontColor=#333333;" parent="1" vertex="1">
                    <mxGeometry x="610" y="260" width="30" height="20" as="geometry"/>
                </mxCell>
                <mxCell id="4" value="Vin" style="rounded=0;whiteSpace=wrap;html=1;fillColor=#f5f5f5;strokeColor=#666666;fontColor=#333333;" parent="1" vertex="1">
                    <mxGeometry x="310" y="450" width="30" height="20" as="geometry"/>
                </mxCell>
                <mxCell id="5" value="D5" style="rounded=0;whiteSpace=wrap;html=1;fillColor=#F5F5F5;fontColor=#333333;strokeColor=#666666;" parent="1" vertex="1">
                    <mxGeometry x="610" y="290" width="30" height="20" as="geometry"/>
                </mxCell>
                <mxCell id="6" value="+dir" style="rounded=0;whiteSpace=wrap;html=1;fillColor=#f5f5f5;fontColor=#333333;strokeColor=#666666;" parent="1" vertex="1">
                    <mxGeometry x="610" y="321" width="30" height="20" as="geometry"/>
                </mxCell>
                <mxCell id="7" value="-dir" style="rounded=0;whiteSpace=wrap;html=1;fillColor=#f5f5f5;fontColor=#333333;strokeColor=#666666;" parent="1" vertex="1">
                    <mxGeometry x="610" y="394" width="30" height="20" as="geometry"/>
                </mxCell>
                <mxCell id="8" value="D3" style="rounded=0;whiteSpace=wrap;html=1;fillColor=#f5f5f5;fontColor=#333333;strokeColor=#666666;" parent="1" vertex="1">
                    <mxGeometry x="610" y="420" width="30" height="20" as="geometry"/>
                </mxCell>
                <mxCell id="11" value="5V" style="rounded=0;whiteSpace=wrap;html=1;fillColor=#f5f5f5;fontColor=#333333;strokeColor=#666666;" parent="1" vertex="1">
                    <mxGeometry x="610" y="450" width="30" height="20" as="geometry"/>
                </mxCell>
                <mxCell id="12" value="5V" style="rounded=0;whiteSpace=wrap;html=1;fillColor=#f5f5f5;fontColor=#333333;strokeColor=#666666;" parent="1" vertex="1">
                    <mxGeometry x="350" y="260" width="30" height="20" as="geometry"/>
                </mxCell>
                <mxCell id="13" value="D9" style="rounded=0;whiteSpace=wrap;html=1;fillColor=#f5f5f5;fontColor=#333333;strokeColor=#666666;" parent="1" vertex="1">
                    <mxGeometry x="350" y="290" width="30" height="20" as="geometry"/>
                </mxCell>
                <mxCell id="14" value="-esq" style="rounded=0;whiteSpace=wrap;html=1;fillColor=#f5f5f5;fontColor=#333333;strokeColor=#666666;" parent="1" vertex="1">
                    <mxGeometry x="350" y="320" width="30" height="20" as="geometry"/>
                </mxCell>
                <mxCell id="15" value="+esq" style="rounded=0;whiteSpace=wrap;html=1;fillColor=#f5f5f5;fontColor=#333333;strokeColor=#666666;" parent="1" vertex="1">
                    <mxGeometry x="350" y="394" width="30" height="20" as="geometry"/>
                </mxCell>
                <mxCell id="16" value="D6" style="rounded=0;whiteSpace=wrap;html=1;fillColor=#f5f5f5;fontColor=#333333;strokeColor=#666666;" parent="1" vertex="1">
                    <mxGeometry x="350" y="420" width="30" height="20" as="geometry"/>
                </mxCell>
                <mxCell id="17" value="9V" style="rounded=0;whiteSpace=wrap;html=1;fillColor=#f5f5f5;strokeColor=#666666;fontColor=#333333;" parent="1" vertex="1">
                    <mxGeometry x="350" y="450" width="30" height="20" as="geometry"/>
                </mxCell>
                <mxCell id="18" value="trocar vcc1 e vcc2!!" style="rounded=0;whiteSpace=wrap;html=1;fillColor=#f5f5f5;fontColor=#333333;strokeColor=#666666;" parent="1" vertex="1">
                    <mxGeometry x="690" y="200" width="100" height="100" as="geometry"/>
                </mxCell>
            </root>
        </mxGraphModel>
    </diagram>
</mxfile>